<mxfile host="65bd71144e">
    <diagram name="Page-1" id="f0v8lTxLfie4X3GOy0ia">
        <mxGraphModel dx="1786" dy="779" grid="0" gridSize="10" guides="1" tooltips="1" connect="1" arrows="1" fold="1" page="0" pageScale="1" pageWidth="1600" pageHeight="1200" math="0" shadow="0">
            <root>
                <mxCell id="0"/>
                <mxCell id="1" parent="0"/>
                <mxCell id="6N2g55wu91nxoUrMsZoq-104" value="" style="group" parent="1" vertex="1" connectable="0">
                    <mxGeometry x="32" y="401" width="130" height="200" as="geometry"/>
                </mxCell>
                <mxCell id="6N2g55wu91nxoUrMsZoq-105" value="&lt;font face=&quot;Lucida Console&quot; style=&quot;font-size: 24px;&quot; color=&quot;#ffffff&quot;&gt;9V&lt;/font&gt;" style="rounded=0;whiteSpace=wrap;html=1;fillColor=#000000;" parent="6N2g55wu91nxoUrMsZoq-104" vertex="1">
                    <mxGeometry y="30" width="120" height="170" as="geometry"/>
                </mxCell>
                <mxCell id="6N2g55wu91nxoUrMsZoq-106" value="" style="rounded=0;whiteSpace=wrap;html=1;fillColor=#bd7a3d;" parent="6N2g55wu91nxoUrMsZoq-104" vertex="1">
                    <mxGeometry y="30" width="120" height="60" as="geometry"/>
                </mxCell>
                <mxCell id="6N2g55wu91nxoUrMsZoq-107" value="" style="rounded=0;whiteSpace=wrap;html=1;strokeColor=default;fillColor=#E8E8E8;" parent="6N2g55wu91nxoUrMsZoq-104" vertex="1">
                    <mxGeometry x="10" y="20" width="40" height="10" as="geometry"/>
                </mxCell>
                <mxCell id="6N2g55wu91nxoUrMsZoq-108" value="" style="rounded=0;whiteSpace=wrap;html=1;strokeColor=default;fillColor=#E8E8E8;" parent="6N2g55wu91nxoUrMsZoq-104" vertex="1">
                    <mxGeometry x="70" y="20" width="40" height="10" as="geometry"/>
                </mxCell>
                <mxCell id="6N2g55wu91nxoUrMsZoq-109" value="" style="rounded=0;whiteSpace=wrap;html=1;fillColor=#000000;" parent="6N2g55wu91nxoUrMsZoq-104" vertex="1">
                    <mxGeometry width="130" height="20" as="geometry"/>
                </mxCell>
                <mxCell id="6N2g55wu91nxoUrMsZoq-110" style="edgeStyle=orthogonalEdgeStyle;rounded=0;orthogonalLoop=1;jettySize=auto;html=1;endArrow=none;endFill=0;" parent="1" source="6N2g55wu91nxoUrMsZoq-109" target="6N2g55wu91nxoUrMsZoq-16" edge="1">
                    <mxGeometry relative="1" as="geometry"/>
                </mxCell>
                <mxCell id="6N2g55wu91nxoUrMsZoq-111" style="edgeStyle=orthogonalEdgeStyle;rounded=0;orthogonalLoop=1;jettySize=auto;html=1;strokeColor=#CC0000;endArrow=none;endFill=0;entryX=0.5;entryY=1;entryDx=0;entryDy=0;exitX=1;exitY=0.75;exitDx=0;exitDy=0;" parent="1" source="6N2g55wu91nxoUrMsZoq-109" target="6N2g55wu91nxoUrMsZoq-120" edge="1">
                    <mxGeometry relative="1" as="geometry">
                        <Array as="points">
                            <mxPoint x="179" y="416"/>
                            <mxPoint x="179" y="495"/>
                            <mxPoint x="201" y="495"/>
                        </Array>
                    </mxGeometry>
                </mxCell>
                <mxCell id="6N2g55wu91nxoUrMsZoq-122" value="" style="group" parent="1" vertex="1" connectable="0">
                    <mxGeometry x="190" y="440" width="42" height="49" as="geometry"/>
                </mxCell>
                <mxCell id="6N2g55wu91nxoUrMsZoq-121" value="" style="rounded=0;whiteSpace=wrap;html=1;fillColor=#B3B3B3;strokeColor=none;" parent="6N2g55wu91nxoUrMsZoq-122" vertex="1">
                    <mxGeometry x="29" y="38" width="4" height="11" as="geometry"/>
                </mxCell>
                <mxCell id="6N2g55wu91nxoUrMsZoq-120" value="" style="rounded=0;whiteSpace=wrap;html=1;fillColor=#B3B3B3;strokeColor=none;" parent="6N2g55wu91nxoUrMsZoq-122" vertex="1">
                    <mxGeometry x="9" y="38" width="4" height="11" as="geometry"/>
                </mxCell>
                <mxCell id="6N2g55wu91nxoUrMsZoq-112" value="" style="ellipse;whiteSpace=wrap;html=1;aspect=fixed;gradientColor=default;fillColor=#4D4D4D;" parent="6N2g55wu91nxoUrMsZoq-122" vertex="1">
                    <mxGeometry width="42" height="42" as="geometry"/>
                </mxCell>
                <mxCell id="6N2g55wu91nxoUrMsZoq-114" value="" style="ellipse;whiteSpace=wrap;html=1;fillColor=#000000;strokeColor=none;" parent="6N2g55wu91nxoUrMsZoq-122" vertex="1">
                    <mxGeometry x="4" y="3" width="34" height="31" as="geometry"/>
                </mxCell>
                <mxCell id="6N2g55wu91nxoUrMsZoq-113" value="" style="ellipse;whiteSpace=wrap;html=1;gradientColor=#333333;fillColor=#4D4D4D;" parent="6N2g55wu91nxoUrMsZoq-122" vertex="1">
                    <mxGeometry x="4" y="7" width="34" height="31" as="geometry"/>
                </mxCell>
                <mxCell id="6N2g55wu91nxoUrMsZoq-115" value="" style="ellipse;whiteSpace=wrap;html=1;strokeColor=#FFFFFF;fillColor=none;" parent="6N2g55wu91nxoUrMsZoq-122" vertex="1">
                    <mxGeometry x="18" y="12" width="6" height="7" as="geometry"/>
                </mxCell>
                <mxCell id="6N2g55wu91nxoUrMsZoq-116" value="" style="endArrow=none;html=1;rounded=0;strokeColor=#FFFFFF;" parent="6N2g55wu91nxoUrMsZoq-122" edge="1">
                    <mxGeometry width="50" height="50" relative="1" as="geometry">
                        <mxPoint x="20.939999999999998" y="34" as="sourcePoint"/>
                        <mxPoint x="20.939999999999998" y="27" as="targetPoint"/>
                    </mxGeometry>
                </mxCell>
                <mxCell id="6N2g55wu91nxoUrMsZoq-123" style="edgeStyle=orthogonalEdgeStyle;rounded=0;orthogonalLoop=1;jettySize=auto;html=1;strokeColor=#CC0000;" parent="1" source="6N2g55wu91nxoUrMsZoq-121" target="6N2g55wu91nxoUrMsZoq-17" edge="1">
                    <mxGeometry relative="1" as="geometry">
                        <Array as="points">
                            <mxPoint x="221" y="497"/>
                            <mxPoint x="241" y="497"/>
                            <mxPoint x="241" y="431"/>
                        </Array>
                    </mxGeometry>
                </mxCell>
                <mxCell id="6N2g55wu91nxoUrMsZoq-147" style="edgeStyle=orthogonalEdgeStyle;rounded=0;orthogonalLoop=1;jettySize=auto;html=1;endArrow=none;endFill=0;" parent="1" source="6N2g55wu91nxoUrMsZoq-142" target="6N2g55wu91nxoUrMsZoq-25" edge="1">
                    <mxGeometry relative="1" as="geometry">
                        <Array as="points">
                            <mxPoint x="178" y="87"/>
                            <mxPoint x="433" y="87"/>
                            <mxPoint x="433" y="191"/>
                        </Array>
                    </mxGeometry>
                </mxCell>
                <mxCell id="6N2g55wu91nxoUrMsZoq-148" value="" style="group" parent="1" vertex="1" connectable="0">
                    <mxGeometry x="62" y="30" width="96" height="95.5" as="geometry"/>
                </mxCell>
                <mxCell id="6N2g55wu91nxoUrMsZoq-135" value="" style="shape=or;whiteSpace=wrap;html=1;rotation=-90;strokeColor=none;fillColor=#007FFF;gradientColor=#004C99;gradientDirection=west;" parent="6N2g55wu91nxoUrMsZoq-148" vertex="1">
                    <mxGeometry x="35" y="-25" width="26" height="80" as="geometry"/>
                </mxCell>
                <mxCell id="6N2g55wu91nxoUrMsZoq-136" value="" style="rounded=0;whiteSpace=wrap;html=1;fillColor=#4D4D4D;gradientColor=default;gradientDirection=east;strokeColor=none;" parent="6N2g55wu91nxoUrMsZoq-148" vertex="1">
                    <mxGeometry y="26.5" width="96" height="10" as="geometry"/>
                </mxCell>
                <mxCell id="6N2g55wu91nxoUrMsZoq-138" value="" style="rounded=0;whiteSpace=wrap;html=1;fillColor=#000000;" parent="6N2g55wu91nxoUrMsZoq-148" vertex="1">
                    <mxGeometry x="34" y="36.5" width="28" height="30" as="geometry"/>
                </mxCell>
                <mxCell id="6N2g55wu91nxoUrMsZoq-139" value="" style="rounded=0;whiteSpace=wrap;html=1;fillColor=#990000;gradientColor=#330000;strokeColor=none;" parent="6N2g55wu91nxoUrMsZoq-148" vertex="1">
                    <mxGeometry x="29.5" y="66.5" width="37" height="19" as="geometry"/>
                </mxCell>
                <mxCell id="6N2g55wu91nxoUrMsZoq-140" value="" style="rounded=0;whiteSpace=wrap;html=1;fillColor=#B3B3B3;strokeColor=none;" parent="6N2g55wu91nxoUrMsZoq-148" vertex="1">
                    <mxGeometry x="52.5" y="85.5" width="4" height="8" as="geometry"/>
                </mxCell>
                <mxCell id="6N2g55wu91nxoUrMsZoq-141" value="" style="rounded=0;whiteSpace=wrap;html=1;fillColor=#B3B3B3;strokeColor=none;rotation=90;" parent="6N2g55wu91nxoUrMsZoq-148" vertex="1">
                    <mxGeometry x="47" y="86" width="4" height="15" as="geometry"/>
                </mxCell>
                <mxCell id="6N2g55wu91nxoUrMsZoq-142" value="" style="rounded=0;whiteSpace=wrap;html=1;fillColor=#B3B3B3;strokeColor=none;rotation=90;" parent="6N2g55wu91nxoUrMsZoq-148" vertex="1">
                    <mxGeometry x="64.5" y="52.5" width="4" height="8" as="geometry"/>
                </mxCell>
                <mxCell id="6N2g55wu91nxoUrMsZoq-150" style="edgeStyle=orthogonalEdgeStyle;rounded=0;orthogonalLoop=1;jettySize=auto;html=1;entryX=0.5;entryY=0;entryDx=0;entryDy=0;strokeColor=#CC0000;endArrow=none;endFill=0;" parent="6N2g55wu91nxoUrMsZoq-148" source="6N2g55wu91nxoUrMsZoq-143" target="6N2g55wu91nxoUrMsZoq-144" edge="1">
                    <mxGeometry relative="1" as="geometry">
                        <Array as="points">
                            <mxPoint x="91" y="63"/>
                            <mxPoint x="91" y="73"/>
                        </Array>
                    </mxGeometry>
                </mxCell>
                <mxCell id="6N2g55wu91nxoUrMsZoq-143" value="" style="rounded=0;whiteSpace=wrap;html=1;fillColor=#B3B3B3;strokeColor=none;rotation=90;" parent="6N2g55wu91nxoUrMsZoq-148" vertex="1">
                    <mxGeometry x="64.5" y="58.5" width="4" height="8" as="geometry"/>
                </mxCell>
                <mxCell id="6N2g55wu91nxoUrMsZoq-144" value="" style="rounded=0;whiteSpace=wrap;html=1;fillColor=#B3B3B3;strokeColor=none;rotation=90;" parent="6N2g55wu91nxoUrMsZoq-148" vertex="1">
                    <mxGeometry x="68.5" y="69" width="4" height="8" as="geometry"/>
                </mxCell>
                <mxCell id="6N2g55wu91nxoUrMsZoq-145" value="" style="rounded=0;whiteSpace=wrap;html=1;fillColor=#B3B3B3;strokeColor=none;rotation=90;" parent="6N2g55wu91nxoUrMsZoq-148" vertex="1">
                    <mxGeometry x="68.5" y="75" width="4" height="8" as="geometry"/>
                </mxCell>
                <mxCell id="6N2g55wu91nxoUrMsZoq-151" style="edgeStyle=orthogonalEdgeStyle;rounded=0;orthogonalLoop=1;jettySize=auto;html=1;endArrow=none;endFill=0;strokeColor=#CC0000;" parent="1" source="6N2g55wu91nxoUrMsZoq-141" target="6N2g55wu91nxoUrMsZoq-7" edge="1">
                    <mxGeometry relative="1" as="geometry">
                        <Array as="points">
                            <mxPoint x="111" y="171"/>
                        </Array>
                    </mxGeometry>
                </mxCell>
                <mxCell id="6N2g55wu91nxoUrMsZoq-163" value="" style="group" parent="1" vertex="1" connectable="0">
                    <mxGeometry x="259" y="106" width="140" height="337.5" as="geometry"/>
                </mxCell>
                <mxCell id="6N2g55wu91nxoUrMsZoq-3" value="" style="endArrow=none;html=1;rounded=0;entryX=0;entryY=0.75;entryDx=0;entryDy=0;strokeColor=#808080;strokeWidth=3;" parent="6N2g55wu91nxoUrMsZoq-163" target="6N2g55wu91nxoUrMsZoq-5" edge="1">
                    <mxGeometry width="50" height="50" relative="1" as="geometry">
                        <mxPoint x="55" y="20" as="sourcePoint"/>
                        <mxPoint x="100" y="20" as="targetPoint"/>
                    </mxGeometry>
                </mxCell>
                <mxCell id="6N2g55wu91nxoUrMsZoq-4" value="" style="rounded=0;whiteSpace=wrap;html=1;fillColor=#328085;rotation=90;container=0;gradientColor=#007481;gradientDirection=east;" parent="6N2g55wu91nxoUrMsZoq-163" vertex="1">
                    <mxGeometry x="-88.75" y="108.75" width="317.5" height="140" as="geometry"/>
                </mxCell>
                <mxCell id="6N2g55wu91nxoUrMsZoq-5" value="" style="rounded=0;whiteSpace=wrap;html=1;fillColor=#E8E8E8;rotation=90;strokeColor=#808080;container=0;" parent="6N2g55wu91nxoUrMsZoq-163" vertex="1">
                    <mxGeometry x="55" y="-15" width="30" height="60" as="geometry"/>
                </mxCell>
                <mxCell id="6N2g55wu91nxoUrMsZoq-97" value="" style="rounded=0;whiteSpace=wrap;html=1;strokeColor=none;fillColor=#E8E8E8;rotation=90;" parent="6N2g55wu91nxoUrMsZoq-163" vertex="1">
                    <mxGeometry x="72.62" y="280" width="25" height="8.5" as="geometry"/>
                </mxCell>
                <mxCell id="6N2g55wu91nxoUrMsZoq-6" value="" style="ellipse;whiteSpace=wrap;html=1;aspect=fixed;strokeColor=#E8E8E8;fillColor=#0F0F4A;strokeWidth=4;rotation=90;container=0;" parent="6N2g55wu91nxoUrMsZoq-163" vertex="1">
                    <mxGeometry x="10" y="40" width="10" height="10" as="geometry"/>
                </mxCell>
                <mxCell id="6N2g55wu91nxoUrMsZoq-7" value="" style="ellipse;whiteSpace=wrap;html=1;aspect=fixed;strokeColor=#E8E8E8;fillColor=#0F0F4A;strokeWidth=4;rotation=90;container=0;" parent="6N2g55wu91nxoUrMsZoq-163" vertex="1">
                    <mxGeometry x="10" y="60" width="10" height="10" as="geometry"/>
                </mxCell>
                <mxCell id="6N2g55wu91nxoUrMsZoq-8" value="" style="ellipse;whiteSpace=wrap;html=1;aspect=fixed;strokeColor=#E8E8E8;fillColor=#0F0F4A;strokeWidth=4;rotation=90;container=0;" parent="6N2g55wu91nxoUrMsZoq-163" vertex="1">
                    <mxGeometry x="10" y="80" width="10" height="10" as="geometry"/>
                </mxCell>
                <mxCell id="6N2g55wu91nxoUrMsZoq-9" value="" style="ellipse;whiteSpace=wrap;html=1;aspect=fixed;strokeColor=#E8E8E8;fillColor=#0F0F4A;strokeWidth=4;rotation=90;container=0;" parent="6N2g55wu91nxoUrMsZoq-163" vertex="1">
                    <mxGeometry x="10" y="100" width="10" height="10" as="geometry"/>
                </mxCell>
                <mxCell id="6N2g55wu91nxoUrMsZoq-11" value="" style="ellipse;whiteSpace=wrap;html=1;aspect=fixed;strokeColor=#E8E8E8;fillColor=#0F0F4A;strokeWidth=4;rotation=90;container=0;" parent="6N2g55wu91nxoUrMsZoq-163" vertex="1">
                    <mxGeometry x="10" y="120" width="10" height="10" as="geometry"/>
                </mxCell>
                <mxCell id="6N2g55wu91nxoUrMsZoq-12" value="" style="ellipse;whiteSpace=wrap;html=1;aspect=fixed;strokeColor=#E8E8E8;fillColor=#0F0F4A;strokeWidth=4;rotation=90;container=0;" parent="6N2g55wu91nxoUrMsZoq-163" vertex="1">
                    <mxGeometry x="10" y="140" width="10" height="10" as="geometry"/>
                </mxCell>
                <mxCell id="6N2g55wu91nxoUrMsZoq-13" value="" style="ellipse;whiteSpace=wrap;html=1;aspect=fixed;strokeColor=#E8E8E8;fillColor=#0F0F4A;strokeWidth=4;rotation=90;container=0;" parent="6N2g55wu91nxoUrMsZoq-163" vertex="1">
                    <mxGeometry x="10" y="160" width="10" height="10" as="geometry"/>
                </mxCell>
                <mxCell id="6N2g55wu91nxoUrMsZoq-14" value="" style="ellipse;whiteSpace=wrap;html=1;aspect=fixed;strokeColor=#E8E8E8;fillColor=#0F0F4A;strokeWidth=4;rotation=90;container=0;" parent="6N2g55wu91nxoUrMsZoq-163" vertex="1">
                    <mxGeometry x="10" y="180" width="10" height="10" as="geometry"/>
                </mxCell>
                <mxCell id="6N2g55wu91nxoUrMsZoq-15" value="" style="ellipse;whiteSpace=wrap;html=1;aspect=fixed;strokeColor=#E8E8E8;fillColor=#0F0F4A;strokeWidth=4;rotation=90;container=0;" parent="6N2g55wu91nxoUrMsZoq-163" vertex="1">
                    <mxGeometry x="10" y="280" width="10" height="10" as="geometry"/>
                </mxCell>
                <mxCell id="6N2g55wu91nxoUrMsZoq-16" value="" style="ellipse;whiteSpace=wrap;html=1;aspect=fixed;strokeColor=#E8E8E8;fillColor=#0F0F4A;strokeWidth=4;rotation=90;container=0;" parent="6N2g55wu91nxoUrMsZoq-163" vertex="1">
                    <mxGeometry x="10" y="300" width="10" height="10" as="geometry"/>
                </mxCell>
                <mxCell id="6N2g55wu91nxoUrMsZoq-17" value="" style="ellipse;whiteSpace=wrap;html=1;aspect=fixed;strokeColor=#E8E8E8;fillColor=#0F0F4A;strokeWidth=4;rotation=90;container=0;" parent="6N2g55wu91nxoUrMsZoq-163" vertex="1">
                    <mxGeometry x="10" y="320" width="10" height="10" as="geometry"/>
                </mxCell>
                <mxCell id="6N2g55wu91nxoUrMsZoq-19" value="" style="ellipse;whiteSpace=wrap;html=1;aspect=fixed;strokeColor=#E8E8E8;fillColor=#0F0F4A;strokeWidth=4;rotation=90;container=0;" parent="6N2g55wu91nxoUrMsZoq-163" vertex="1">
                    <mxGeometry x="10" y="260" width="10" height="10" as="geometry"/>
                </mxCell>
                <mxCell id="6N2g55wu91nxoUrMsZoq-20" value="" style="ellipse;whiteSpace=wrap;html=1;aspect=fixed;strokeColor=#E8E8E8;fillColor=#0F0F4A;strokeWidth=4;rotation=90;container=0;" parent="6N2g55wu91nxoUrMsZoq-163" vertex="1">
                    <mxGeometry x="10" y="240" width="10" height="10" as="geometry"/>
                </mxCell>
                <mxCell id="6N2g55wu91nxoUrMsZoq-21" value="" style="ellipse;whiteSpace=wrap;html=1;aspect=fixed;strokeColor=#E8E8E8;fillColor=#0F0F4A;strokeWidth=4;rotation=90;container=0;" parent="6N2g55wu91nxoUrMsZoq-163" vertex="1">
                    <mxGeometry x="10" y="220" width="10" height="10" as="geometry"/>
                </mxCell>
                <mxCell id="6N2g55wu91nxoUrMsZoq-22" value="" style="ellipse;whiteSpace=wrap;html=1;aspect=fixed;strokeColor=#E8E8E8;fillColor=#0F0F4A;strokeWidth=4;rotation=90;container=0;" parent="6N2g55wu91nxoUrMsZoq-163" vertex="1">
                    <mxGeometry x="10" y="200" width="10" height="10" as="geometry"/>
                </mxCell>
                <mxCell id="6N2g55wu91nxoUrMsZoq-23" value="" style="ellipse;whiteSpace=wrap;html=1;aspect=fixed;strokeColor=#E8E8E8;fillColor=#0F0F4A;strokeWidth=4;rotation=90;container=0;" parent="6N2g55wu91nxoUrMsZoq-163" vertex="1">
                    <mxGeometry x="120" y="40" width="10" height="10" as="geometry"/>
                </mxCell>
                <mxCell id="6N2g55wu91nxoUrMsZoq-165" style="edgeStyle=orthogonalEdgeStyle;rounded=0;orthogonalLoop=1;jettySize=auto;html=1;endArrow=none;endFill=0;strokeColor=#CC0000;" parent="6N2g55wu91nxoUrMsZoq-163" source="6N2g55wu91nxoUrMsZoq-27" edge="1">
                    <mxGeometry relative="1" as="geometry">
                        <mxPoint x="223" y="108" as="targetPoint"/>
                        <Array as="points">
                            <mxPoint x="223" y="104"/>
                        </Array>
                    </mxGeometry>
                </mxCell>
                <mxCell id="6N2g55wu91nxoUrMsZoq-24" value="" style="ellipse;whiteSpace=wrap;html=1;aspect=fixed;strokeColor=#E8E8E8;fillColor=#0F0F4A;strokeWidth=4;rotation=90;container=0;" parent="6N2g55wu91nxoUrMsZoq-163" vertex="1">
                    <mxGeometry x="120" y="60" width="10" height="10" as="geometry"/>
                </mxCell>
                <mxCell id="6N2g55wu91nxoUrMsZoq-25" value="" style="ellipse;whiteSpace=wrap;html=1;aspect=fixed;strokeColor=#E8E8E8;fillColor=#0F0F4A;strokeWidth=4;rotation=90;container=0;" parent="6N2g55wu91nxoUrMsZoq-163" vertex="1">
                    <mxGeometry x="120" y="80" width="10" height="10" as="geometry"/>
                </mxCell>
                <mxCell id="6N2g55wu91nxoUrMsZoq-27" value="" style="ellipse;whiteSpace=wrap;html=1;aspect=fixed;strokeColor=#E8E8E8;fillColor=#0F0F4A;strokeWidth=4;rotation=90;container=0;" parent="6N2g55wu91nxoUrMsZoq-163" vertex="1">
                    <mxGeometry x="120" y="100" width="10" height="10" as="geometry"/>
                </mxCell>
                <mxCell id="6N2g55wu91nxoUrMsZoq-29" value="" style="ellipse;whiteSpace=wrap;html=1;aspect=fixed;strokeColor=#E8E8E8;fillColor=#0F0F4A;strokeWidth=4;rotation=90;container=0;" parent="6N2g55wu91nxoUrMsZoq-163" vertex="1">
                    <mxGeometry x="120" y="120" width="10" height="10" as="geometry"/>
                </mxCell>
                <mxCell id="6N2g55wu91nxoUrMsZoq-30" value="" style="ellipse;whiteSpace=wrap;html=1;aspect=fixed;strokeColor=#E8E8E8;fillColor=#0F0F4A;strokeWidth=4;rotation=90;container=0;" parent="6N2g55wu91nxoUrMsZoq-163" vertex="1">
                    <mxGeometry x="120" y="140" width="10" height="10" as="geometry"/>
                </mxCell>
                <mxCell id="6N2g55wu91nxoUrMsZoq-31" value="" style="ellipse;whiteSpace=wrap;html=1;aspect=fixed;strokeColor=#E8E8E8;fillColor=#0F0F4A;strokeWidth=4;rotation=90;container=0;" parent="6N2g55wu91nxoUrMsZoq-163" vertex="1">
                    <mxGeometry x="120" y="160" width="10" height="10" as="geometry"/>
                </mxCell>
                <mxCell id="6N2g55wu91nxoUrMsZoq-32" value="" style="ellipse;whiteSpace=wrap;html=1;aspect=fixed;strokeColor=#E8E8E8;fillColor=#0F0F4A;strokeWidth=4;rotation=90;container=0;" parent="6N2g55wu91nxoUrMsZoq-163" vertex="1">
                    <mxGeometry x="120" y="180" width="10" height="10" as="geometry"/>
                </mxCell>
                <mxCell id="6N2g55wu91nxoUrMsZoq-33" value="" style="ellipse;whiteSpace=wrap;html=1;aspect=fixed;strokeColor=#E8E8E8;fillColor=#0F0F4A;strokeWidth=4;rotation=90;container=0;" parent="6N2g55wu91nxoUrMsZoq-163" vertex="1">
                    <mxGeometry x="120" y="200" width="10" height="10" as="geometry"/>
                </mxCell>
                <mxCell id="6N2g55wu91nxoUrMsZoq-34" value="" style="ellipse;whiteSpace=wrap;html=1;aspect=fixed;strokeColor=#E8E8E8;fillColor=#0F0F4A;strokeWidth=4;rotation=90;container=0;" parent="6N2g55wu91nxoUrMsZoq-163" vertex="1">
                    <mxGeometry x="120" y="220" width="10" height="10" as="geometry"/>
                </mxCell>
                <mxCell id="6N2g55wu91nxoUrMsZoq-35" value="" style="ellipse;whiteSpace=wrap;html=1;aspect=fixed;strokeColor=#E8E8E8;fillColor=#0F0F4A;strokeWidth=4;rotation=90;container=0;" parent="6N2g55wu91nxoUrMsZoq-163" vertex="1">
                    <mxGeometry x="120" y="240" width="10" height="10" as="geometry"/>
                </mxCell>
                <mxCell id="6N2g55wu91nxoUrMsZoq-166" style="edgeStyle=orthogonalEdgeStyle;rounded=0;orthogonalLoop=1;jettySize=auto;html=1;endArrow=none;endFill=0;" parent="6N2g55wu91nxoUrMsZoq-163" source="6N2g55wu91nxoUrMsZoq-42" edge="1">
                    <mxGeometry relative="1" as="geometry">
                        <mxPoint x="245" y="148" as="targetPoint"/>
                    </mxGeometry>
                </mxCell>
                <mxCell id="6N2g55wu91nxoUrMsZoq-42" value="" style="ellipse;whiteSpace=wrap;html=1;aspect=fixed;strokeColor=#E8E8E8;fillColor=#0F0F4A;strokeWidth=4;rotation=90;container=0;" parent="6N2g55wu91nxoUrMsZoq-163" vertex="1">
                    <mxGeometry x="120" y="260" width="10" height="10" as="geometry"/>
                </mxCell>
                <mxCell id="6N2g55wu91nxoUrMsZoq-43" value="" style="ellipse;whiteSpace=wrap;html=1;aspect=fixed;strokeColor=#E8E8E8;fillColor=#0F0F4A;strokeWidth=4;rotation=90;container=0;" parent="6N2g55wu91nxoUrMsZoq-163" vertex="1">
                    <mxGeometry x="120" y="280" width="10" height="10" as="geometry"/>
                </mxCell>
                <mxCell id="6N2g55wu91nxoUrMsZoq-44" value="" style="ellipse;whiteSpace=wrap;html=1;aspect=fixed;strokeColor=#E8E8E8;fillColor=#0F0F4A;strokeWidth=4;rotation=90;container=0;" parent="6N2g55wu91nxoUrMsZoq-163" vertex="1">
                    <mxGeometry x="120" y="300" width="10" height="10" as="geometry"/>
                </mxCell>
                <mxCell id="6N2g55wu91nxoUrMsZoq-45" value="" style="ellipse;whiteSpace=wrap;html=1;aspect=fixed;strokeColor=#E8E8E8;fillColor=#0F0F4A;strokeWidth=4;rotation=90;container=0;" parent="6N2g55wu91nxoUrMsZoq-163" vertex="1">
                    <mxGeometry x="120" y="320" width="10" height="10" as="geometry"/>
                </mxCell>
                <mxCell id="6N2g55wu91nxoUrMsZoq-48" value="" style="endArrow=none;html=1;rounded=0;entryX=0;entryY=0.75;entryDx=0;entryDy=0;strokeColor=#808080;strokeWidth=3;" parent="6N2g55wu91nxoUrMsZoq-163" edge="1">
                    <mxGeometry width="50" height="50" relative="1" as="geometry">
                        <mxPoint x="85" y="20" as="sourcePoint"/>
                        <mxPoint x="85" as="targetPoint"/>
                    </mxGeometry>
                </mxCell>
                <mxCell id="6N2g55wu91nxoUrMsZoq-49" value="D13" style="text;html=1;align=center;verticalAlign=middle;whiteSpace=wrap;rounded=0;fontColor=#FFFFFF;container=0;" parent="6N2g55wu91nxoUrMsZoq-163" vertex="1">
                    <mxGeometry x="25" y="40" width="30" height="10" as="geometry"/>
                </mxCell>
                <mxCell id="6N2g55wu91nxoUrMsZoq-50" value="3V" style="text;html=1;align=center;verticalAlign=middle;whiteSpace=wrap;rounded=0;fontColor=#FFFFFF;container=0;" parent="6N2g55wu91nxoUrMsZoq-163" vertex="1">
                    <mxGeometry x="25" y="60" width="30" height="10" as="geometry"/>
                </mxCell>
                <mxCell id="6N2g55wu91nxoUrMsZoq-51" value="REF" style="text;html=1;align=center;verticalAlign=middle;whiteSpace=wrap;rounded=0;fontColor=#FFFFFF;container=0;" parent="6N2g55wu91nxoUrMsZoq-163" vertex="1">
                    <mxGeometry x="25" y="80" width="30" height="10" as="geometry"/>
                </mxCell>
                <mxCell id="6N2g55wu91nxoUrMsZoq-52" value="A0" style="text;html=1;align=center;verticalAlign=middle;whiteSpace=wrap;rounded=0;fontColor=#FFFFFF;container=0;" parent="6N2g55wu91nxoUrMsZoq-163" vertex="1">
                    <mxGeometry x="25" y="100" width="30" height="10" as="geometry"/>
                </mxCell>
                <mxCell id="6N2g55wu91nxoUrMsZoq-53" value="A1" style="text;html=1;align=center;verticalAlign=middle;whiteSpace=wrap;rounded=0;fontColor=#FFFFFF;container=0;" parent="6N2g55wu91nxoUrMsZoq-163" vertex="1">
                    <mxGeometry x="25" y="120" width="30" height="10" as="geometry"/>
                </mxCell>
                <mxCell id="6N2g55wu91nxoUrMsZoq-54" value="A2" style="text;html=1;align=center;verticalAlign=middle;whiteSpace=wrap;rounded=0;fontColor=#FFFFFF;container=0;" parent="6N2g55wu91nxoUrMsZoq-163" vertex="1">
                    <mxGeometry x="25" y="140" width="30" height="10" as="geometry"/>
                </mxCell>
                <mxCell id="6N2g55wu91nxoUrMsZoq-55" value="A3" style="text;html=1;align=center;verticalAlign=middle;whiteSpace=wrap;rounded=0;fontColor=#FFFFFF;container=0;" parent="6N2g55wu91nxoUrMsZoq-163" vertex="1">
                    <mxGeometry x="25" y="160" width="30" height="10" as="geometry"/>
                </mxCell>
                <mxCell id="6N2g55wu91nxoUrMsZoq-56" value="A4" style="text;html=1;align=center;verticalAlign=middle;whiteSpace=wrap;rounded=0;fontColor=#FFFFFF;container=0;" parent="6N2g55wu91nxoUrMsZoq-163" vertex="1">
                    <mxGeometry x="25" y="180" width="30" height="10" as="geometry"/>
                </mxCell>
                <mxCell id="6N2g55wu91nxoUrMsZoq-57" value="RS" style="text;html=1;align=center;verticalAlign=middle;whiteSpace=wrap;rounded=0;fontColor=#FFFFFF;container=0;" parent="6N2g55wu91nxoUrMsZoq-163" vertex="1">
                    <mxGeometry x="25" y="280" width="30" height="10" as="geometry"/>
                </mxCell>
                <mxCell id="6N2g55wu91nxoUrMsZoq-58" value="A5" style="text;html=1;align=center;verticalAlign=middle;whiteSpace=wrap;rounded=0;fontColor=#FFFFFF;container=0;" parent="6N2g55wu91nxoUrMsZoq-163" vertex="1">
                    <mxGeometry x="25" y="200" width="30" height="10" as="geometry"/>
                </mxCell>
                <mxCell id="6N2g55wu91nxoUrMsZoq-59" value="5V" style="text;html=1;align=center;verticalAlign=middle;whiteSpace=wrap;rounded=0;fontColor=#FFFFFF;container=0;" parent="6N2g55wu91nxoUrMsZoq-163" vertex="1">
                    <mxGeometry x="25" y="260" width="30" height="10" as="geometry"/>
                </mxCell>
                <mxCell id="6N2g55wu91nxoUrMsZoq-60" value="VIN" style="text;html=1;align=center;verticalAlign=middle;whiteSpace=wrap;rounded=0;fontColor=#FFFFFF;container=0;" parent="6N2g55wu91nxoUrMsZoq-163" vertex="1">
                    <mxGeometry x="25" y="320" width="30" height="10" as="geometry"/>
                </mxCell>
                <mxCell id="6N2g55wu91nxoUrMsZoq-62" value="GND" style="text;html=1;align=center;verticalAlign=middle;whiteSpace=wrap;rounded=0;fontColor=#FFFFFF;container=0;" parent="6N2g55wu91nxoUrMsZoq-163" vertex="1">
                    <mxGeometry x="25" y="300" width="30" height="10" as="geometry"/>
                </mxCell>
                <mxCell id="6N2g55wu91nxoUrMsZoq-69" value="TX" style="text;html=1;align=center;verticalAlign=middle;whiteSpace=wrap;rounded=0;fontColor=#FFFFFF;container=0;" parent="6N2g55wu91nxoUrMsZoq-163" vertex="1">
                    <mxGeometry x="85" y="320" width="30" height="10" as="geometry"/>
                </mxCell>
                <mxCell id="6N2g55wu91nxoUrMsZoq-70" value="RX" style="text;html=1;align=center;verticalAlign=middle;whiteSpace=wrap;rounded=0;fontColor=#FFFFFF;container=0;" parent="6N2g55wu91nxoUrMsZoq-163" vertex="1">
                    <mxGeometry x="85" y="300" width="30" height="10" as="geometry"/>
                </mxCell>
                <mxCell id="6N2g55wu91nxoUrMsZoq-71" value="RS" style="text;html=1;align=center;verticalAlign=middle;whiteSpace=wrap;rounded=0;fontColor=#FFFFFF;container=0;" parent="6N2g55wu91nxoUrMsZoq-163" vertex="1">
                    <mxGeometry x="85" y="280" width="30" height="10" as="geometry"/>
                </mxCell>
                <mxCell id="6N2g55wu91nxoUrMsZoq-72" value="GND" style="text;html=1;align=center;verticalAlign=middle;whiteSpace=wrap;rounded=0;fontColor=#FFFFFF;container=0;" parent="6N2g55wu91nxoUrMsZoq-163" vertex="1">
                    <mxGeometry x="85" y="260" width="30" height="10" as="geometry"/>
                </mxCell>
                <mxCell id="6N2g55wu91nxoUrMsZoq-73" value="D4" style="text;html=1;align=center;verticalAlign=middle;whiteSpace=wrap;rounded=0;fontColor=#FFFFFF;container=0;" parent="6N2g55wu91nxoUrMsZoq-163" vertex="1">
                    <mxGeometry x="85" y="200" width="30" height="10" as="geometry"/>
                </mxCell>
                <mxCell id="6N2g55wu91nxoUrMsZoq-74" value="D5" style="text;html=1;align=center;verticalAlign=middle;whiteSpace=wrap;rounded=0;fontColor=#FFFFFF;container=0;" parent="6N2g55wu91nxoUrMsZoq-163" vertex="1">
                    <mxGeometry x="85" y="180" width="30" height="10" as="geometry"/>
                </mxCell>
                <mxCell id="6N2g55wu91nxoUrMsZoq-75" value="D6" style="text;html=1;align=center;verticalAlign=middle;whiteSpace=wrap;rounded=0;fontColor=#FFFFFF;container=0;" parent="6N2g55wu91nxoUrMsZoq-163" vertex="1">
                    <mxGeometry x="85" y="160" width="30" height="10" as="geometry"/>
                </mxCell>
                <mxCell id="6N2g55wu91nxoUrMsZoq-76" value="D7" style="text;html=1;align=center;verticalAlign=middle;whiteSpace=wrap;rounded=0;fontColor=#FFFFFF;container=0;" parent="6N2g55wu91nxoUrMsZoq-163" vertex="1">
                    <mxGeometry x="85" y="140" width="30" height="10" as="geometry"/>
                </mxCell>
                <mxCell id="6N2g55wu91nxoUrMsZoq-77" value="D8" style="text;html=1;align=center;verticalAlign=middle;whiteSpace=wrap;rounded=0;fontColor=#FFFFFF;container=0;" parent="6N2g55wu91nxoUrMsZoq-163" vertex="1">
                    <mxGeometry x="85" y="120" width="30" height="10" as="geometry"/>
                </mxCell>
                <mxCell id="6N2g55wu91nxoUrMsZoq-78" value="D9" style="text;html=1;align=center;verticalAlign=middle;whiteSpace=wrap;rounded=0;fontColor=#FFFFFF;container=0;" parent="6N2g55wu91nxoUrMsZoq-163" vertex="1">
                    <mxGeometry x="85" y="100" width="30" height="10" as="geometry"/>
                </mxCell>
                <mxCell id="6N2g55wu91nxoUrMsZoq-79" value="D10" style="text;html=1;align=center;verticalAlign=middle;whiteSpace=wrap;rounded=0;fontColor=#FFFFFF;container=0;" parent="6N2g55wu91nxoUrMsZoq-163" vertex="1">
                    <mxGeometry x="85" y="80" width="30" height="10" as="geometry"/>
                </mxCell>
                <mxCell id="6N2g55wu91nxoUrMsZoq-80" value="D11" style="text;html=1;align=center;verticalAlign=middle;whiteSpace=wrap;rounded=0;fontColor=#FFFFFF;container=0;" parent="6N2g55wu91nxoUrMsZoq-163" vertex="1">
                    <mxGeometry x="85" y="60" width="30" height="10" as="geometry"/>
                </mxCell>
                <mxCell id="6N2g55wu91nxoUrMsZoq-81" value="D12" style="text;html=1;align=center;verticalAlign=middle;whiteSpace=wrap;rounded=0;fontColor=#FFFFFF;container=0;" parent="6N2g55wu91nxoUrMsZoq-163" vertex="1">
                    <mxGeometry x="85" y="40" width="30" height="10" as="geometry"/>
                </mxCell>
                <mxCell id="6N2g55wu91nxoUrMsZoq-82" value="D2" style="text;html=1;align=center;verticalAlign=middle;whiteSpace=wrap;rounded=0;fontColor=#FFFFFF;container=0;" parent="6N2g55wu91nxoUrMsZoq-163" vertex="1">
                    <mxGeometry x="85" y="240" width="30" height="10" as="geometry"/>
                </mxCell>
                <mxCell id="6N2g55wu91nxoUrMsZoq-83" value="D3" style="text;html=1;align=center;verticalAlign=middle;whiteSpace=wrap;rounded=0;fontColor=#FFFFFF;container=0;" parent="6N2g55wu91nxoUrMsZoq-163" vertex="1">
                    <mxGeometry x="85" y="220" width="30" height="10" as="geometry"/>
                </mxCell>
                <mxCell id="6N2g55wu91nxoUrMsZoq-84" value="" style="endArrow=none;html=1;rounded=0;entryX=0;entryY=0.75;entryDx=0;entryDy=0;strokeColor=#808080;strokeWidth=3;" parent="6N2g55wu91nxoUrMsZoq-163" edge="1">
                    <mxGeometry width="50" height="50" relative="1" as="geometry">
                        <mxPoint x="55" y="20" as="sourcePoint"/>
                        <mxPoint x="55" as="targetPoint"/>
                    </mxGeometry>
                </mxCell>
                <mxCell id="6N2g55wu91nxoUrMsZoq-88" value="A6" style="text;html=1;align=center;verticalAlign=middle;whiteSpace=wrap;rounded=0;fontColor=#FFFFFF;container=0;" parent="6N2g55wu91nxoUrMsZoq-163" vertex="1">
                    <mxGeometry x="25" y="220" width="30" height="10" as="geometry"/>
                </mxCell>
                <mxCell id="6N2g55wu91nxoUrMsZoq-89" value="A7" style="text;html=1;align=center;verticalAlign=middle;whiteSpace=wrap;rounded=0;fontColor=#FFFFFF;container=0;" parent="6N2g55wu91nxoUrMsZoq-163" vertex="1">
                    <mxGeometry x="25" y="240" width="30" height="10" as="geometry"/>
                </mxCell>
                <mxCell id="6N2g55wu91nxoUrMsZoq-96" value="" style="rounded=1;whiteSpace=wrap;html=1;strokeColor=none;fillColor=#66FFB3;rotation=90;" parent="6N2g55wu91nxoUrMsZoq-163" vertex="1">
                    <mxGeometry x="79.87" y="280.75" width="10.5" height="7" as="geometry"/>
                </mxCell>
                <mxCell id="6N2g55wu91nxoUrMsZoq-99" value="" style="rounded=0;whiteSpace=wrap;html=1;strokeColor=none;fillColor=#E8E8E8;rotation=90;" parent="6N2g55wu91nxoUrMsZoq-163" vertex="1">
                    <mxGeometry x="62.620000000000005" y="280" width="25" height="8.5" as="geometry"/>
                </mxCell>
                <mxCell id="6N2g55wu91nxoUrMsZoq-98" value="" style="rounded=1;whiteSpace=wrap;html=1;strokeColor=none;fillColor=#66FFB3;rotation=90;" parent="6N2g55wu91nxoUrMsZoq-163" vertex="1">
                    <mxGeometry x="69.87" y="280.75" width="10.5" height="7" as="geometry"/>
                </mxCell>
                <mxCell id="6N2g55wu91nxoUrMsZoq-101" value="" style="rounded=0;whiteSpace=wrap;html=1;strokeColor=none;fillColor=#E8E8E8;rotation=90;" parent="6N2g55wu91nxoUrMsZoq-163" vertex="1">
                    <mxGeometry x="52.870000000000005" y="280" width="25" height="8.5" as="geometry"/>
                </mxCell>
                <mxCell id="6N2g55wu91nxoUrMsZoq-100" value="" style="rounded=1;whiteSpace=wrap;html=1;strokeColor=none;fillColor=#66FFB3;rotation=90;" parent="6N2g55wu91nxoUrMsZoq-163" vertex="1">
                    <mxGeometry x="60.120000000000005" y="280.75" width="10.5" height="7" as="geometry"/>
                </mxCell>
                <mxCell id="6N2g55wu91nxoUrMsZoq-103" value="" style="rounded=0;whiteSpace=wrap;html=1;strokeColor=none;fillColor=#E8E8E8;rotation=90;" parent="6N2g55wu91nxoUrMsZoq-163" vertex="1">
                    <mxGeometry x="42.370000000000005" y="280" width="25" height="8.5" as="geometry"/>
                </mxCell>
                <mxCell id="6N2g55wu91nxoUrMsZoq-102" value="" style="rounded=1;whiteSpace=wrap;html=1;strokeColor=none;fillColor=#66FFB3;rotation=90;" parent="6N2g55wu91nxoUrMsZoq-163" vertex="1">
                    <mxGeometry x="49.620000000000005" y="280.75" width="10.5" height="7" as="geometry"/>
                </mxCell>
                <mxCell id="6N2g55wu91nxoUrMsZoq-152" value="" style="group" parent="1" vertex="1" connectable="0">
                    <mxGeometry x="477" y="213" width="32" height="42.67" as="geometry"/>
                </mxCell>
                <mxCell id="6N2g55wu91nxoUrMsZoq-153" value="" style="rounded=0;whiteSpace=wrap;html=1;gradientColor=#808080;fillColor=#E8E8E8;strokeColor=#4D4D4D;" parent="6N2g55wu91nxoUrMsZoq-152" vertex="1">
                    <mxGeometry y="5.33375" width="32" height="32.002500000000005" as="geometry"/>
                </mxCell>
                <mxCell id="6N2g55wu91nxoUrMsZoq-154" value="" style="ellipse;whiteSpace=wrap;html=1;aspect=fixed;fillColor=#4D4D4D;gradientColor=default;" parent="6N2g55wu91nxoUrMsZoq-152" vertex="1">
                    <mxGeometry x="5.333333333333333" y="10.6675" width="21.333333333333332" height="21.333333333333332" as="geometry"/>
                </mxCell>
                <mxCell id="6N2g55wu91nxoUrMsZoq-155" value="" style="ellipse;whiteSpace=wrap;html=1;aspect=fixed;fillColor=#4D4D4D;strokeColor=none;" parent="6N2g55wu91nxoUrMsZoq-152" vertex="1">
                    <mxGeometry x="2.1333333333333333" y="7.467250000000001" width="5.333333333333333" height="5.333333333333333" as="geometry"/>
                </mxCell>
                <mxCell id="6N2g55wu91nxoUrMsZoq-156" value="" style="ellipse;whiteSpace=wrap;html=1;aspect=fixed;fillColor=#4D4D4D;strokeColor=none;" parent="6N2g55wu91nxoUrMsZoq-152" vertex="1">
                    <mxGeometry x="2.1333333333333333" y="30.402375000000003" width="5.333333333333333" height="5.333333333333333" as="geometry"/>
                </mxCell>
                <mxCell id="6N2g55wu91nxoUrMsZoq-157" value="" style="ellipse;whiteSpace=wrap;html=1;aspect=fixed;fillColor=#4D4D4D;strokeColor=none;" parent="6N2g55wu91nxoUrMsZoq-152" vertex="1">
                    <mxGeometry x="24.53333333333333" y="7.467250000000001" width="5.333333333333333" height="5.333333333333333" as="geometry"/>
                </mxCell>
                <mxCell id="6N2g55wu91nxoUrMsZoq-158" value="" style="ellipse;whiteSpace=wrap;html=1;aspect=fixed;fillColor=#4D4D4D;strokeColor=none;" parent="6N2g55wu91nxoUrMsZoq-152" vertex="1">
                    <mxGeometry x="24.53333333333333" y="30.402375000000003" width="5.333333333333333" height="5.333333333333333" as="geometry"/>
                </mxCell>
                <mxCell id="6N2g55wu91nxoUrMsZoq-159" value="" style="endArrow=none;html=1;rounded=0;strokeColor=#4D4D4D;strokeWidth=4;" parent="6N2g55wu91nxoUrMsZoq-152" edge="1">
                    <mxGeometry width="50" height="50" relative="1" as="geometry">
                        <mxPoint x="26.666666666666668" y="42.67" as="sourcePoint"/>
                        <mxPoint x="26.666666666666668" y="37.33625" as="targetPoint"/>
                    </mxGeometry>
                </mxCell>
                <mxCell id="6N2g55wu91nxoUrMsZoq-160" value="" style="endArrow=none;html=1;rounded=0;strokeColor=#4D4D4D;strokeWidth=4;" parent="6N2g55wu91nxoUrMsZoq-152" edge="1">
                    <mxGeometry width="50" height="50" relative="1" as="geometry">
                        <mxPoint x="5.333333333333333" y="42.67" as="sourcePoint"/>
                        <mxPoint x="5.333333333333333" y="37.33625" as="targetPoint"/>
                    </mxGeometry>
                </mxCell>
                <mxCell id="6N2g55wu91nxoUrMsZoq-161" value="" style="endArrow=none;html=1;rounded=0;strokeColor=#4D4D4D;strokeWidth=4;" parent="6N2g55wu91nxoUrMsZoq-152" edge="1">
                    <mxGeometry width="50" height="50" relative="1" as="geometry">
                        <mxPoint x="5.333333333333333" y="5.33375" as="sourcePoint"/>
                        <mxPoint x="5.333333333333333" as="targetPoint"/>
                    </mxGeometry>
                </mxCell>
                <mxCell id="6N2g55wu91nxoUrMsZoq-162" value="" style="endArrow=none;html=1;rounded=0;strokeColor=#4D4D4D;strokeWidth=4;" parent="6N2g55wu91nxoUrMsZoq-152" edge="1">
                    <mxGeometry width="50" height="50" relative="1" as="geometry">
                        <mxPoint x="26.666666666666668" y="5.33375" as="sourcePoint"/>
                        <mxPoint x="26.666666666666668" as="targetPoint"/>
                    </mxGeometry>
                </mxCell>
                <mxCell id="6N2g55wu91nxoUrMsZoq-171" value="" style="group;rotation=-180;" parent="1" vertex="1" connectable="0">
                    <mxGeometry x="529" y="466" width="70" height="89" as="geometry"/>
                </mxCell>
                <mxCell id="6N2g55wu91nxoUrMsZoq-167" value="" style="rounded=0;whiteSpace=wrap;html=1;gradientColor=#006633;fillColor=#009900;strokeColor=none;rotation=-180;" parent="6N2g55wu91nxoUrMsZoq-171" vertex="1">
                    <mxGeometry width="70" height="89" as="geometry"/>
                </mxCell>
                <mxCell id="6N2g55wu91nxoUrMsZoq-168" value="" style="ellipse;whiteSpace=wrap;html=1;aspect=fixed;strokeColor=#E8E8E8;fillColor=#0F0F4A;strokeWidth=4;rotation=-90;container=0;" parent="6N2g55wu91nxoUrMsZoq-171" vertex="1">
                    <mxGeometry x="39" y="4" width="10" height="10" as="geometry"/>
                </mxCell>
                <mxCell id="6N2g55wu91nxoUrMsZoq-169" value="" style="ellipse;whiteSpace=wrap;html=1;aspect=fixed;strokeColor=#E8E8E8;fillColor=#0F0F4A;strokeWidth=4;rotation=-90;container=0;" parent="6N2g55wu91nxoUrMsZoq-171" vertex="1">
                    <mxGeometry x="22" y="4" width="10" height="10" as="geometry"/>
                </mxCell>
                <mxCell id="6N2g55wu91nxoUrMsZoq-170" value="" style="ellipse;whiteSpace=wrap;html=1;aspect=fixed;strokeColor=#E8E8E8;fillColor=#0F0F4A;strokeWidth=4;rotation=-90;container=0;" parent="6N2g55wu91nxoUrMsZoq-171" vertex="1">
                    <mxGeometry x="5" y="4" width="10" height="10" as="geometry"/>
                </mxCell>
                <mxCell id="6N2g55wu91nxoUrMsZoq-175" style="edgeStyle=orthogonalEdgeStyle;rounded=0;orthogonalLoop=1;jettySize=auto;html=1;endArrow=none;endFill=0;" parent="1" source="6N2g55wu91nxoUrMsZoq-170" target="6N2g55wu91nxoUrMsZoq-42" edge="1">
                    <mxGeometry relative="1" as="geometry">
                        <Array as="points">
                            <mxPoint x="539" y="371"/>
                        </Array>
                    </mxGeometry>
                </mxCell>
                <mxCell id="6N2g55wu91nxoUrMsZoq-173" style="edgeStyle=orthogonalEdgeStyle;rounded=0;orthogonalLoop=1;jettySize=auto;html=1;endArrow=none;endFill=0;strokeColor=#CC0000;jumpStyle=arc;" parent="1" source="6N2g55wu91nxoUrMsZoq-169" target="6N2g55wu91nxoUrMsZoq-19" edge="1">
                    <mxGeometry relative="1" as="geometry">
                        <Array as="points">
                            <mxPoint x="556" y="454"/>
                            <mxPoint x="253" y="454"/>
                            <mxPoint x="253" y="371"/>
                        </Array>
                    </mxGeometry>
                </mxCell>
                <mxCell id="6N2g55wu91nxoUrMsZoq-172" style="edgeStyle=orthogonalEdgeStyle;rounded=0;orthogonalLoop=1;jettySize=auto;html=1;strokeColor=#007FFF;endArrow=none;endFill=0;jumpStyle=arc;" parent="1" source="6N2g55wu91nxoUrMsZoq-168" target="6N2g55wu91nxoUrMsZoq-23" edge="1">
                    <mxGeometry relative="1" as="geometry">
                        <mxPoint x="547.2857142857142" y="161.4285714285714" as="targetPoint"/>
                        <Array as="points">
                            <mxPoint x="572" y="151"/>
                        </Array>
                    </mxGeometry>
                </mxCell>
                <mxCell id="NrSOS7HWTmHr_U7G-Utp-3" value="" style="group" parent="1" vertex="1" connectable="0">
                    <mxGeometry x="15" y="1136" width="130" height="200" as="geometry"/>
                </mxCell>
                <mxCell id="NrSOS7HWTmHr_U7G-Utp-4" value="&lt;font face=&quot;Lucida Console&quot; style=&quot;font-size: 24px;&quot; color=&quot;#ffffff&quot;&gt;9V&lt;/font&gt;" style="rounded=0;whiteSpace=wrap;html=1;fillColor=#000000;" parent="NrSOS7HWTmHr_U7G-Utp-3" vertex="1">
                    <mxGeometry y="30" width="120" height="170" as="geometry"/>
                </mxCell>
                <mxCell id="NrSOS7HWTmHr_U7G-Utp-5" value="" style="rounded=0;whiteSpace=wrap;html=1;fillColor=#bd7a3d;" parent="NrSOS7HWTmHr_U7G-Utp-3" vertex="1">
                    <mxGeometry y="30" width="120" height="60" as="geometry"/>
                </mxCell>
                <mxCell id="NrSOS7HWTmHr_U7G-Utp-6" value="" style="rounded=0;whiteSpace=wrap;html=1;strokeColor=default;fillColor=#E8E8E8;" parent="NrSOS7HWTmHr_U7G-Utp-3" vertex="1">
                    <mxGeometry x="10" y="20" width="40" height="10" as="geometry"/>
                </mxCell>
                <mxCell id="NrSOS7HWTmHr_U7G-Utp-7" value="" style="rounded=0;whiteSpace=wrap;html=1;strokeColor=default;fillColor=#E8E8E8;" parent="NrSOS7HWTmHr_U7G-Utp-3" vertex="1">
                    <mxGeometry x="70" y="20" width="40" height="10" as="geometry"/>
                </mxCell>
                <mxCell id="NrSOS7HWTmHr_U7G-Utp-8" value="" style="rounded=0;whiteSpace=wrap;html=1;fillColor=#000000;" parent="NrSOS7HWTmHr_U7G-Utp-3" vertex="1">
                    <mxGeometry width="130" height="20" as="geometry"/>
                </mxCell>
                <mxCell id="NrSOS7HWTmHr_U7G-Utp-9" style="edgeStyle=orthogonalEdgeStyle;rounded=0;orthogonalLoop=1;jettySize=auto;html=1;endArrow=none;endFill=0;jumpStyle=arc;" parent="1" source="NrSOS7HWTmHr_U7G-Utp-8" target="NrSOS7HWTmHr_U7G-Utp-56" edge="1">
                    <mxGeometry relative="1" as="geometry"/>
                </mxCell>
                <mxCell id="NrSOS7HWTmHr_U7G-Utp-10" style="edgeStyle=orthogonalEdgeStyle;rounded=0;orthogonalLoop=1;jettySize=auto;html=1;strokeColor=#CC0000;endArrow=none;endFill=0;entryX=0.5;entryY=1;entryDx=0;entryDy=0;exitX=1;exitY=0.75;exitDx=0;exitDy=0;jumpStyle=arc;" parent="1" source="NrSOS7HWTmHr_U7G-Utp-8" target="NrSOS7HWTmHr_U7G-Utp-13" edge="1">
                    <mxGeometry relative="1" as="geometry">
                        <Array as="points">
                            <mxPoint x="162" y="1151"/>
                            <mxPoint x="162" y="1230"/>
                            <mxPoint x="184" y="1230"/>
                        </Array>
                    </mxGeometry>
                </mxCell>
                <mxCell id="NrSOS7HWTmHr_U7G-Utp-11" value="" style="group" parent="1" vertex="1" connectable="0">
                    <mxGeometry x="173" y="1175" width="42" height="49" as="geometry"/>
                </mxCell>
                <mxCell id="NrSOS7HWTmHr_U7G-Utp-12" value="" style="rounded=0;whiteSpace=wrap;html=1;fillColor=#B3B3B3;strokeColor=none;" parent="NrSOS7HWTmHr_U7G-Utp-11" vertex="1">
                    <mxGeometry x="29" y="38" width="4" height="11" as="geometry"/>
                </mxCell>
                <mxCell id="NrSOS7HWTmHr_U7G-Utp-13" value="" style="rounded=0;whiteSpace=wrap;html=1;fillColor=#B3B3B3;strokeColor=none;" parent="NrSOS7HWTmHr_U7G-Utp-11" vertex="1">
                    <mxGeometry x="9" y="38" width="4" height="11" as="geometry"/>
                </mxCell>
                <mxCell id="NrSOS7HWTmHr_U7G-Utp-14" value="" style="ellipse;whiteSpace=wrap;html=1;aspect=fixed;gradientColor=default;fillColor=#4D4D4D;" parent="NrSOS7HWTmHr_U7G-Utp-11" vertex="1">
                    <mxGeometry width="42" height="42" as="geometry"/>
                </mxCell>
                <mxCell id="NrSOS7HWTmHr_U7G-Utp-15" value="" style="ellipse;whiteSpace=wrap;html=1;fillColor=#000000;strokeColor=none;" parent="NrSOS7HWTmHr_U7G-Utp-11" vertex="1">
                    <mxGeometry x="4" y="3" width="34" height="31" as="geometry"/>
                </mxCell>
                <mxCell id="NrSOS7HWTmHr_U7G-Utp-16" value="" style="ellipse;whiteSpace=wrap;html=1;gradientColor=#333333;fillColor=#4D4D4D;" parent="NrSOS7HWTmHr_U7G-Utp-11" vertex="1">
                    <mxGeometry x="4" y="7" width="34" height="31" as="geometry"/>
                </mxCell>
                <mxCell id="NrSOS7HWTmHr_U7G-Utp-17" value="" style="ellipse;whiteSpace=wrap;html=1;strokeColor=#FFFFFF;fillColor=none;" parent="NrSOS7HWTmHr_U7G-Utp-11" vertex="1">
                    <mxGeometry x="18" y="12" width="6" height="7" as="geometry"/>
                </mxCell>
                <mxCell id="NrSOS7HWTmHr_U7G-Utp-18" value="" style="endArrow=none;html=1;rounded=0;strokeColor=#FFFFFF;" parent="NrSOS7HWTmHr_U7G-Utp-11" edge="1">
                    <mxGeometry width="50" height="50" relative="1" as="geometry">
                        <mxPoint x="20.939999999999998" y="34" as="sourcePoint"/>
                        <mxPoint x="20.939999999999998" y="27" as="targetPoint"/>
                    </mxGeometry>
                </mxCell>
                <mxCell id="NrSOS7HWTmHr_U7G-Utp-19" style="edgeStyle=orthogonalEdgeStyle;rounded=0;orthogonalLoop=1;jettySize=auto;html=1;strokeColor=#CC0000;jumpStyle=arc;" parent="1" source="NrSOS7HWTmHr_U7G-Utp-12" target="NrSOS7HWTmHr_U7G-Utp-57" edge="1">
                    <mxGeometry relative="1" as="geometry">
                        <Array as="points">
                            <mxPoint x="204" y="1232"/>
                            <mxPoint x="224" y="1232"/>
                            <mxPoint x="224" y="1166"/>
                        </Array>
                    </mxGeometry>
                </mxCell>
                <mxCell id="NrSOS7HWTmHr_U7G-Utp-20" value="" style="group" parent="1" vertex="1" connectable="0">
                    <mxGeometry x="815" y="695" width="60" height="110" as="geometry"/>
                </mxCell>
                <mxCell id="NrSOS7HWTmHr_U7G-Utp-21" value="" style="rounded=0;whiteSpace=wrap;html=1;fillColor=#B3B3B3;strokeColor=none;" parent="NrSOS7HWTmHr_U7G-Utp-20" vertex="1">
                    <mxGeometry x="42" y="70" width="4" height="30" as="geometry"/>
                </mxCell>
                <mxCell id="NrSOS7HWTmHr_U7G-Utp-22" value="" style="rounded=0;whiteSpace=wrap;html=1;fillColor=#B3B3B3;strokeColor=none;" parent="NrSOS7HWTmHr_U7G-Utp-20" vertex="1">
                    <mxGeometry x="13" y="70" width="4" height="40" as="geometry"/>
                </mxCell>
                <mxCell id="NrSOS7HWTmHr_U7G-Utp-23" value="" style="ellipse;whiteSpace=wrap;html=1;aspect=fixed;fillColor=#FFD966;" parent="NrSOS7HWTmHr_U7G-Utp-20" vertex="1">
                    <mxGeometry width="60" height="60" as="geometry"/>
                </mxCell>
                <mxCell id="NrSOS7HWTmHr_U7G-Utp-24" value="" style="rounded=0;whiteSpace=wrap;html=1;fillColor=#FFD966;shadow=0;" parent="NrSOS7HWTmHr_U7G-Utp-20" vertex="1">
                    <mxGeometry y="30" width="60" height="40" as="geometry"/>
                </mxCell>
                <mxCell id="NrSOS7HWTmHr_U7G-Utp-42" value="" style="group" parent="1" vertex="1" connectable="0">
                    <mxGeometry x="242" y="841" width="140" height="337.5" as="geometry"/>
                </mxCell>
                <mxCell id="NrSOS7HWTmHr_U7G-Utp-43" value="" style="endArrow=none;html=1;rounded=0;entryX=0;entryY=0.75;entryDx=0;entryDy=0;strokeColor=#808080;strokeWidth=3;" parent="NrSOS7HWTmHr_U7G-Utp-42" target="NrSOS7HWTmHr_U7G-Utp-45" edge="1">
                    <mxGeometry width="50" height="50" relative="1" as="geometry">
                        <mxPoint x="55" y="20" as="sourcePoint"/>
                        <mxPoint x="100" y="20" as="targetPoint"/>
                    </mxGeometry>
                </mxCell>
                <mxCell id="NrSOS7HWTmHr_U7G-Utp-44" value="" style="rounded=0;whiteSpace=wrap;html=1;fillColor=#328085;rotation=90;container=0;gradientColor=#007481;gradientDirection=east;" parent="NrSOS7HWTmHr_U7G-Utp-42" vertex="1">
                    <mxGeometry x="-88.75" y="108.75" width="317.5" height="140" as="geometry"/>
                </mxCell>
                <mxCell id="NrSOS7HWTmHr_U7G-Utp-45" value="" style="rounded=0;whiteSpace=wrap;html=1;fillColor=#E8E8E8;rotation=90;strokeColor=#808080;container=0;" parent="NrSOS7HWTmHr_U7G-Utp-42" vertex="1">
                    <mxGeometry x="55" y="-15" width="30" height="60" as="geometry"/>
                </mxCell>
                <mxCell id="NrSOS7HWTmHr_U7G-Utp-46" value="" style="rounded=0;whiteSpace=wrap;html=1;strokeColor=none;fillColor=#E8E8E8;rotation=90;" parent="NrSOS7HWTmHr_U7G-Utp-42" vertex="1">
                    <mxGeometry x="72.62" y="280" width="25" height="8.5" as="geometry"/>
                </mxCell>
                <mxCell id="NrSOS7HWTmHr_U7G-Utp-47" value="" style="ellipse;whiteSpace=wrap;html=1;aspect=fixed;strokeColor=#E8E8E8;fillColor=#0F0F4A;strokeWidth=4;rotation=90;container=0;" parent="NrSOS7HWTmHr_U7G-Utp-42" vertex="1">
                    <mxGeometry x="10" y="40" width="10" height="10" as="geometry"/>
                </mxCell>
                <mxCell id="NrSOS7HWTmHr_U7G-Utp-48" value="" style="ellipse;whiteSpace=wrap;html=1;aspect=fixed;strokeColor=#E8E8E8;fillColor=#0F0F4A;strokeWidth=4;rotation=90;container=0;" parent="NrSOS7HWTmHr_U7G-Utp-42" vertex="1">
                    <mxGeometry x="10" y="60" width="10" height="10" as="geometry"/>
                </mxCell>
                <mxCell id="NrSOS7HWTmHr_U7G-Utp-49" value="" style="ellipse;whiteSpace=wrap;html=1;aspect=fixed;strokeColor=#E8E8E8;fillColor=#0F0F4A;strokeWidth=4;rotation=90;container=0;" parent="NrSOS7HWTmHr_U7G-Utp-42" vertex="1">
                    <mxGeometry x="10" y="80" width="10" height="10" as="geometry"/>
                </mxCell>
                <mxCell id="NrSOS7HWTmHr_U7G-Utp-50" value="" style="ellipse;whiteSpace=wrap;html=1;aspect=fixed;strokeColor=#E8E8E8;fillColor=#0F0F4A;strokeWidth=4;rotation=90;container=0;" parent="NrSOS7HWTmHr_U7G-Utp-42" vertex="1">
                    <mxGeometry x="10" y="100" width="10" height="10" as="geometry"/>
                </mxCell>
                <mxCell id="NrSOS7HWTmHr_U7G-Utp-51" value="" style="ellipse;whiteSpace=wrap;html=1;aspect=fixed;strokeColor=#E8E8E8;fillColor=#0F0F4A;strokeWidth=4;rotation=90;container=0;" parent="NrSOS7HWTmHr_U7G-Utp-42" vertex="1">
                    <mxGeometry x="10" y="120" width="10" height="10" as="geometry"/>
                </mxCell>
                <mxCell id="NrSOS7HWTmHr_U7G-Utp-52" value="" style="ellipse;whiteSpace=wrap;html=1;aspect=fixed;strokeColor=#E8E8E8;fillColor=#0F0F4A;strokeWidth=4;rotation=90;container=0;" parent="NrSOS7HWTmHr_U7G-Utp-42" vertex="1">
                    <mxGeometry x="10" y="140" width="10" height="10" as="geometry"/>
                </mxCell>
                <mxCell id="NrSOS7HWTmHr_U7G-Utp-53" value="" style="ellipse;whiteSpace=wrap;html=1;aspect=fixed;strokeColor=#E8E8E8;fillColor=#0F0F4A;strokeWidth=4;rotation=90;container=0;" parent="NrSOS7HWTmHr_U7G-Utp-42" vertex="1">
                    <mxGeometry x="10" y="160" width="10" height="10" as="geometry"/>
                </mxCell>
                <mxCell id="NrSOS7HWTmHr_U7G-Utp-54" value="" style="ellipse;whiteSpace=wrap;html=1;aspect=fixed;strokeColor=#E8E8E8;fillColor=#0F0F4A;strokeWidth=4;rotation=90;container=0;" parent="NrSOS7HWTmHr_U7G-Utp-42" vertex="1">
                    <mxGeometry x="10" y="180" width="10" height="10" as="geometry"/>
                </mxCell>
                <mxCell id="NrSOS7HWTmHr_U7G-Utp-55" value="" style="ellipse;whiteSpace=wrap;html=1;aspect=fixed;strokeColor=#E8E8E8;fillColor=#0F0F4A;strokeWidth=4;rotation=90;container=0;" parent="NrSOS7HWTmHr_U7G-Utp-42" vertex="1">
                    <mxGeometry x="10" y="280" width="10" height="10" as="geometry"/>
                </mxCell>
                <mxCell id="NrSOS7HWTmHr_U7G-Utp-56" value="" style="ellipse;whiteSpace=wrap;html=1;aspect=fixed;strokeColor=#E8E8E8;fillColor=#0F0F4A;strokeWidth=4;rotation=90;container=0;" parent="NrSOS7HWTmHr_U7G-Utp-42" vertex="1">
                    <mxGeometry x="10" y="300" width="10" height="10" as="geometry"/>
                </mxCell>
                <mxCell id="NrSOS7HWTmHr_U7G-Utp-57" value="" style="ellipse;whiteSpace=wrap;html=1;aspect=fixed;strokeColor=#E8E8E8;fillColor=#0F0F4A;strokeWidth=4;rotation=90;container=0;" parent="NrSOS7HWTmHr_U7G-Utp-42" vertex="1">
                    <mxGeometry x="10" y="320" width="10" height="10" as="geometry"/>
                </mxCell>
                <mxCell id="NrSOS7HWTmHr_U7G-Utp-58" value="" style="ellipse;whiteSpace=wrap;html=1;aspect=fixed;strokeColor=#E8E8E8;fillColor=#0F0F4A;strokeWidth=4;rotation=90;container=0;" parent="NrSOS7HWTmHr_U7G-Utp-42" vertex="1">
                    <mxGeometry x="10" y="260" width="10" height="10" as="geometry"/>
                </mxCell>
                <mxCell id="NrSOS7HWTmHr_U7G-Utp-59" value="" style="ellipse;whiteSpace=wrap;html=1;aspect=fixed;strokeColor=#E8E8E8;fillColor=#0F0F4A;strokeWidth=4;rotation=90;container=0;" parent="NrSOS7HWTmHr_U7G-Utp-42" vertex="1">
                    <mxGeometry x="10" y="240" width="10" height="10" as="geometry"/>
                </mxCell>
                <mxCell id="NrSOS7HWTmHr_U7G-Utp-60" value="" style="ellipse;whiteSpace=wrap;html=1;aspect=fixed;strokeColor=#E8E8E8;fillColor=#0F0F4A;strokeWidth=4;rotation=90;container=0;" parent="NrSOS7HWTmHr_U7G-Utp-42" vertex="1">
                    <mxGeometry x="10" y="220" width="10" height="10" as="geometry"/>
                </mxCell>
                <mxCell id="NrSOS7HWTmHr_U7G-Utp-61" value="" style="ellipse;whiteSpace=wrap;html=1;aspect=fixed;strokeColor=#E8E8E8;fillColor=#0F0F4A;strokeWidth=4;rotation=90;container=0;" parent="NrSOS7HWTmHr_U7G-Utp-42" vertex="1">
                    <mxGeometry x="10" y="200" width="10" height="10" as="geometry"/>
                </mxCell>
                <mxCell id="NrSOS7HWTmHr_U7G-Utp-62" value="" style="ellipse;whiteSpace=wrap;html=1;aspect=fixed;strokeColor=#E8E8E8;fillColor=#0F0F4A;strokeWidth=4;rotation=90;container=0;" parent="NrSOS7HWTmHr_U7G-Utp-42" vertex="1">
                    <mxGeometry x="120" y="40" width="10" height="10" as="geometry"/>
                </mxCell>
                <mxCell id="NrSOS7HWTmHr_U7G-Utp-64" value="" style="ellipse;whiteSpace=wrap;html=1;aspect=fixed;strokeColor=#E8E8E8;fillColor=#0F0F4A;strokeWidth=4;rotation=90;container=0;" parent="NrSOS7HWTmHr_U7G-Utp-42" vertex="1">
                    <mxGeometry x="120" y="60" width="10" height="10" as="geometry"/>
                </mxCell>
                <mxCell id="NrSOS7HWTmHr_U7G-Utp-65" value="" style="ellipse;whiteSpace=wrap;html=1;aspect=fixed;strokeColor=#E8E8E8;fillColor=#0F0F4A;strokeWidth=4;rotation=90;container=0;" parent="NrSOS7HWTmHr_U7G-Utp-42" vertex="1">
                    <mxGeometry x="120" y="80" width="10" height="10" as="geometry"/>
                </mxCell>
                <mxCell id="NrSOS7HWTmHr_U7G-Utp-66" value="" style="ellipse;whiteSpace=wrap;html=1;aspect=fixed;strokeColor=#E8E8E8;fillColor=#0F0F4A;strokeWidth=4;rotation=90;container=0;" parent="NrSOS7HWTmHr_U7G-Utp-42" vertex="1">
                    <mxGeometry x="120" y="100" width="10" height="10" as="geometry"/>
                </mxCell>
                <mxCell id="NrSOS7HWTmHr_U7G-Utp-67" value="" style="ellipse;whiteSpace=wrap;html=1;aspect=fixed;strokeColor=#E8E8E8;fillColor=#0F0F4A;strokeWidth=4;rotation=90;container=0;" parent="NrSOS7HWTmHr_U7G-Utp-42" vertex="1">
                    <mxGeometry x="120" y="120" width="10" height="10" as="geometry"/>
                </mxCell>
                <mxCell id="NrSOS7HWTmHr_U7G-Utp-68" value="" style="ellipse;whiteSpace=wrap;html=1;aspect=fixed;strokeColor=#E8E8E8;fillColor=#0F0F4A;strokeWidth=4;rotation=90;container=0;" parent="NrSOS7HWTmHr_U7G-Utp-42" vertex="1">
                    <mxGeometry x="120" y="140" width="10" height="10" as="geometry"/>
                </mxCell>
                <mxCell id="NrSOS7HWTmHr_U7G-Utp-69" value="" style="ellipse;whiteSpace=wrap;html=1;aspect=fixed;strokeColor=#E8E8E8;fillColor=#0F0F4A;strokeWidth=4;rotation=90;container=0;" parent="NrSOS7HWTmHr_U7G-Utp-42" vertex="1">
                    <mxGeometry x="120" y="160" width="10" height="10" as="geometry"/>
                </mxCell>
                <mxCell id="NrSOS7HWTmHr_U7G-Utp-70" value="" style="ellipse;whiteSpace=wrap;html=1;aspect=fixed;strokeColor=#E8E8E8;fillColor=#0F0F4A;strokeWidth=4;rotation=90;container=0;" parent="NrSOS7HWTmHr_U7G-Utp-42" vertex="1">
                    <mxGeometry x="120" y="180" width="10" height="10" as="geometry"/>
                </mxCell>
                <mxCell id="NrSOS7HWTmHr_U7G-Utp-71" value="" style="ellipse;whiteSpace=wrap;html=1;aspect=fixed;strokeColor=#E8E8E8;fillColor=#0F0F4A;strokeWidth=4;rotation=90;container=0;" parent="NrSOS7HWTmHr_U7G-Utp-42" vertex="1">
                    <mxGeometry x="120" y="200" width="10" height="10" as="geometry"/>
                </mxCell>
                <mxCell id="NrSOS7HWTmHr_U7G-Utp-72" value="" style="ellipse;whiteSpace=wrap;html=1;aspect=fixed;strokeColor=#E8E8E8;fillColor=#0F0F4A;strokeWidth=4;rotation=90;container=0;" parent="NrSOS7HWTmHr_U7G-Utp-42" vertex="1">
                    <mxGeometry x="120" y="220" width="10" height="10" as="geometry"/>
                </mxCell>
                <mxCell id="NrSOS7HWTmHr_U7G-Utp-73" value="" style="ellipse;whiteSpace=wrap;html=1;aspect=fixed;strokeColor=#E8E8E8;fillColor=#0F0F4A;strokeWidth=4;rotation=90;container=0;" parent="NrSOS7HWTmHr_U7G-Utp-42" vertex="1">
                    <mxGeometry x="120" y="240" width="10" height="10" as="geometry"/>
                </mxCell>
                <mxCell id="NrSOS7HWTmHr_U7G-Utp-75" value="" style="ellipse;whiteSpace=wrap;html=1;aspect=fixed;strokeColor=#E8E8E8;fillColor=#0F0F4A;strokeWidth=4;rotation=90;container=0;" parent="NrSOS7HWTmHr_U7G-Utp-42" vertex="1">
                    <mxGeometry x="120" y="260" width="10" height="10" as="geometry"/>
                </mxCell>
                <mxCell id="NrSOS7HWTmHr_U7G-Utp-76" value="" style="ellipse;whiteSpace=wrap;html=1;aspect=fixed;strokeColor=#E8E8E8;fillColor=#0F0F4A;strokeWidth=4;rotation=90;container=0;" parent="NrSOS7HWTmHr_U7G-Utp-42" vertex="1">
                    <mxGeometry x="120" y="280" width="10" height="10" as="geometry"/>
                </mxCell>
                <mxCell id="NrSOS7HWTmHr_U7G-Utp-77" value="" style="ellipse;whiteSpace=wrap;html=1;aspect=fixed;strokeColor=#E8E8E8;fillColor=#0F0F4A;strokeWidth=4;rotation=90;container=0;" parent="NrSOS7HWTmHr_U7G-Utp-42" vertex="1">
                    <mxGeometry x="120" y="300" width="10" height="10" as="geometry"/>
                </mxCell>
                <mxCell id="NrSOS7HWTmHr_U7G-Utp-78" value="" style="ellipse;whiteSpace=wrap;html=1;aspect=fixed;strokeColor=#E8E8E8;fillColor=#0F0F4A;strokeWidth=4;rotation=90;container=0;" parent="NrSOS7HWTmHr_U7G-Utp-42" vertex="1">
                    <mxGeometry x="120" y="320" width="10" height="10" as="geometry"/>
                </mxCell>
                <mxCell id="NrSOS7HWTmHr_U7G-Utp-79" value="" style="endArrow=none;html=1;rounded=0;entryX=0;entryY=0.75;entryDx=0;entryDy=0;strokeColor=#808080;strokeWidth=3;" parent="NrSOS7HWTmHr_U7G-Utp-42" edge="1">
                    <mxGeometry width="50" height="50" relative="1" as="geometry">
                        <mxPoint x="85" y="20" as="sourcePoint"/>
                        <mxPoint x="85" as="targetPoint"/>
                    </mxGeometry>
                </mxCell>
                <mxCell id="NrSOS7HWTmHr_U7G-Utp-80" value="D13" style="text;html=1;align=center;verticalAlign=middle;whiteSpace=wrap;rounded=0;fontColor=#FFFFFF;container=0;" parent="NrSOS7HWTmHr_U7G-Utp-42" vertex="1">
                    <mxGeometry x="25" y="40" width="30" height="10" as="geometry"/>
                </mxCell>
                <mxCell id="NrSOS7HWTmHr_U7G-Utp-81" value="3V" style="text;html=1;align=center;verticalAlign=middle;whiteSpace=wrap;rounded=0;fontColor=#FFFFFF;container=0;" parent="NrSOS7HWTmHr_U7G-Utp-42" vertex="1">
                    <mxGeometry x="25" y="60" width="30" height="10" as="geometry"/>
                </mxCell>
                <mxCell id="NrSOS7HWTmHr_U7G-Utp-82" value="REF" style="text;html=1;align=center;verticalAlign=middle;whiteSpace=wrap;rounded=0;fontColor=#FFFFFF;container=0;" parent="NrSOS7HWTmHr_U7G-Utp-42" vertex="1">
                    <mxGeometry x="25" y="80" width="30" height="10" as="geometry"/>
                </mxCell>
                <mxCell id="NrSOS7HWTmHr_U7G-Utp-83" value="A0" style="text;html=1;align=center;verticalAlign=middle;whiteSpace=wrap;rounded=0;fontColor=#FFFFFF;container=0;" parent="NrSOS7HWTmHr_U7G-Utp-42" vertex="1">
                    <mxGeometry x="25" y="100" width="30" height="10" as="geometry"/>
                </mxCell>
                <mxCell id="NrSOS7HWTmHr_U7G-Utp-84" value="A1" style="text;html=1;align=center;verticalAlign=middle;whiteSpace=wrap;rounded=0;fontColor=#FFFFFF;container=0;" parent="NrSOS7HWTmHr_U7G-Utp-42" vertex="1">
                    <mxGeometry x="25" y="120" width="30" height="10" as="geometry"/>
                </mxCell>
                <mxCell id="NrSOS7HWTmHr_U7G-Utp-85" value="A2" style="text;html=1;align=center;verticalAlign=middle;whiteSpace=wrap;rounded=0;fontColor=#FFFFFF;container=0;" parent="NrSOS7HWTmHr_U7G-Utp-42" vertex="1">
                    <mxGeometry x="25" y="140" width="30" height="10" as="geometry"/>
                </mxCell>
                <mxCell id="NrSOS7HWTmHr_U7G-Utp-86" value="A3" style="text;html=1;align=center;verticalAlign=middle;whiteSpace=wrap;rounded=0;fontColor=#FFFFFF;container=0;" parent="NrSOS7HWTmHr_U7G-Utp-42" vertex="1">
                    <mxGeometry x="25" y="160" width="30" height="10" as="geometry"/>
                </mxCell>
                <mxCell id="NrSOS7HWTmHr_U7G-Utp-87" value="A4" style="text;html=1;align=center;verticalAlign=middle;whiteSpace=wrap;rounded=0;fontColor=#FFFFFF;container=0;" parent="NrSOS7HWTmHr_U7G-Utp-42" vertex="1">
                    <mxGeometry x="25" y="180" width="30" height="10" as="geometry"/>
                </mxCell>
                <mxCell id="NrSOS7HWTmHr_U7G-Utp-88" value="RS" style="text;html=1;align=center;verticalAlign=middle;whiteSpace=wrap;rounded=0;fontColor=#FFFFFF;container=0;" parent="NrSOS7HWTmHr_U7G-Utp-42" vertex="1">
                    <mxGeometry x="25" y="280" width="30" height="10" as="geometry"/>
                </mxCell>
                <mxCell id="NrSOS7HWTmHr_U7G-Utp-89" value="A5" style="text;html=1;align=center;verticalAlign=middle;whiteSpace=wrap;rounded=0;fontColor=#FFFFFF;container=0;" parent="NrSOS7HWTmHr_U7G-Utp-42" vertex="1">
                    <mxGeometry x="25" y="200" width="30" height="10" as="geometry"/>
                </mxCell>
                <mxCell id="NrSOS7HWTmHr_U7G-Utp-90" value="5V" style="text;html=1;align=center;verticalAlign=middle;whiteSpace=wrap;rounded=0;fontColor=#FFFFFF;container=0;" parent="NrSOS7HWTmHr_U7G-Utp-42" vertex="1">
                    <mxGeometry x="25" y="260" width="30" height="10" as="geometry"/>
                </mxCell>
                <mxCell id="NrSOS7HWTmHr_U7G-Utp-91" value="VIN" style="text;html=1;align=center;verticalAlign=middle;whiteSpace=wrap;rounded=0;fontColor=#FFFFFF;container=0;" parent="NrSOS7HWTmHr_U7G-Utp-42" vertex="1">
                    <mxGeometry x="25" y="320" width="30" height="10" as="geometry"/>
                </mxCell>
                <mxCell id="NrSOS7HWTmHr_U7G-Utp-92" value="GND" style="text;html=1;align=center;verticalAlign=middle;whiteSpace=wrap;rounded=0;fontColor=#FFFFFF;container=0;" parent="NrSOS7HWTmHr_U7G-Utp-42" vertex="1">
                    <mxGeometry x="25" y="300" width="30" height="10" as="geometry"/>
                </mxCell>
                <mxCell id="NrSOS7HWTmHr_U7G-Utp-93" value="TX" style="text;html=1;align=center;verticalAlign=middle;whiteSpace=wrap;rounded=0;fontColor=#FFFFFF;container=0;" parent="NrSOS7HWTmHr_U7G-Utp-42" vertex="1">
                    <mxGeometry x="85" y="320" width="30" height="10" as="geometry"/>
                </mxCell>
                <mxCell id="NrSOS7HWTmHr_U7G-Utp-94" value="RX" style="text;html=1;align=center;verticalAlign=middle;whiteSpace=wrap;rounded=0;fontColor=#FFFFFF;container=0;" parent="NrSOS7HWTmHr_U7G-Utp-42" vertex="1">
                    <mxGeometry x="85" y="300" width="30" height="10" as="geometry"/>
                </mxCell>
                <mxCell id="NrSOS7HWTmHr_U7G-Utp-95" value="RS" style="text;html=1;align=center;verticalAlign=middle;whiteSpace=wrap;rounded=0;fontColor=#FFFFFF;container=0;" parent="NrSOS7HWTmHr_U7G-Utp-42" vertex="1">
                    <mxGeometry x="85" y="280" width="30" height="10" as="geometry"/>
                </mxCell>
                <mxCell id="NrSOS7HWTmHr_U7G-Utp-96" value="GND" style="text;html=1;align=center;verticalAlign=middle;whiteSpace=wrap;rounded=0;fontColor=#FFFFFF;container=0;" parent="NrSOS7HWTmHr_U7G-Utp-42" vertex="1">
                    <mxGeometry x="85" y="260" width="30" height="10" as="geometry"/>
                </mxCell>
                <mxCell id="NrSOS7HWTmHr_U7G-Utp-97" value="D4" style="text;html=1;align=center;verticalAlign=middle;whiteSpace=wrap;rounded=0;fontColor=#FFFFFF;container=0;" parent="NrSOS7HWTmHr_U7G-Utp-42" vertex="1">
                    <mxGeometry x="85" y="200" width="30" height="10" as="geometry"/>
                </mxCell>
                <mxCell id="NrSOS7HWTmHr_U7G-Utp-98" value="D5" style="text;html=1;align=center;verticalAlign=middle;whiteSpace=wrap;rounded=0;fontColor=#FFFFFF;container=0;" parent="NrSOS7HWTmHr_U7G-Utp-42" vertex="1">
                    <mxGeometry x="85" y="180" width="30" height="10" as="geometry"/>
                </mxCell>
                <mxCell id="NrSOS7HWTmHr_U7G-Utp-99" value="D6" style="text;html=1;align=center;verticalAlign=middle;whiteSpace=wrap;rounded=0;fontColor=#FFFFFF;container=0;" parent="NrSOS7HWTmHr_U7G-Utp-42" vertex="1">
                    <mxGeometry x="85" y="160" width="30" height="10" as="geometry"/>
                </mxCell>
                <mxCell id="NrSOS7HWTmHr_U7G-Utp-100" value="D7" style="text;html=1;align=center;verticalAlign=middle;whiteSpace=wrap;rounded=0;fontColor=#FFFFFF;container=0;" parent="NrSOS7HWTmHr_U7G-Utp-42" vertex="1">
                    <mxGeometry x="85" y="140" width="30" height="10" as="geometry"/>
                </mxCell>
                <mxCell id="NrSOS7HWTmHr_U7G-Utp-101" value="D8" style="text;html=1;align=center;verticalAlign=middle;whiteSpace=wrap;rounded=0;fontColor=#FFFFFF;container=0;" parent="NrSOS7HWTmHr_U7G-Utp-42" vertex="1">
                    <mxGeometry x="85" y="120" width="30" height="10" as="geometry"/>
                </mxCell>
                <mxCell id="NrSOS7HWTmHr_U7G-Utp-102" value="D9" style="text;html=1;align=center;verticalAlign=middle;whiteSpace=wrap;rounded=0;fontColor=#FFFFFF;container=0;" parent="NrSOS7HWTmHr_U7G-Utp-42" vertex="1">
                    <mxGeometry x="85" y="100" width="30" height="10" as="geometry"/>
                </mxCell>
                <mxCell id="NrSOS7HWTmHr_U7G-Utp-103" value="D10" style="text;html=1;align=center;verticalAlign=middle;whiteSpace=wrap;rounded=0;fontColor=#FFFFFF;container=0;" parent="NrSOS7HWTmHr_U7G-Utp-42" vertex="1">
                    <mxGeometry x="85" y="80" width="30" height="10" as="geometry"/>
                </mxCell>
                <mxCell id="NrSOS7HWTmHr_U7G-Utp-104" value="D11" style="text;html=1;align=center;verticalAlign=middle;whiteSpace=wrap;rounded=0;fontColor=#FFFFFF;container=0;" parent="NrSOS7HWTmHr_U7G-Utp-42" vertex="1">
                    <mxGeometry x="85" y="60" width="30" height="10" as="geometry"/>
                </mxCell>
                <mxCell id="NrSOS7HWTmHr_U7G-Utp-105" value="D12" style="text;html=1;align=center;verticalAlign=middle;whiteSpace=wrap;rounded=0;fontColor=#FFFFFF;container=0;" parent="NrSOS7HWTmHr_U7G-Utp-42" vertex="1">
                    <mxGeometry x="85" y="40" width="30" height="10" as="geometry"/>
                </mxCell>
                <mxCell id="NrSOS7HWTmHr_U7G-Utp-106" value="D2" style="text;html=1;align=center;verticalAlign=middle;whiteSpace=wrap;rounded=0;fontColor=#FFFFFF;container=0;" parent="NrSOS7HWTmHr_U7G-Utp-42" vertex="1">
                    <mxGeometry x="85" y="240" width="30" height="10" as="geometry"/>
                </mxCell>
                <mxCell id="NrSOS7HWTmHr_U7G-Utp-107" value="D3" style="text;html=1;align=center;verticalAlign=middle;whiteSpace=wrap;rounded=0;fontColor=#FFFFFF;container=0;" parent="NrSOS7HWTmHr_U7G-Utp-42" vertex="1">
                    <mxGeometry x="85" y="220" width="30" height="10" as="geometry"/>
                </mxCell>
                <mxCell id="NrSOS7HWTmHr_U7G-Utp-108" value="" style="endArrow=none;html=1;rounded=0;entryX=0;entryY=0.75;entryDx=0;entryDy=0;strokeColor=#808080;strokeWidth=3;" parent="NrSOS7HWTmHr_U7G-Utp-42" edge="1">
                    <mxGeometry width="50" height="50" relative="1" as="geometry">
                        <mxPoint x="55" y="20" as="sourcePoint"/>
                        <mxPoint x="55" as="targetPoint"/>
                    </mxGeometry>
                </mxCell>
                <mxCell id="NrSOS7HWTmHr_U7G-Utp-109" value="A6" style="text;html=1;align=center;verticalAlign=middle;whiteSpace=wrap;rounded=0;fontColor=#FFFFFF;container=0;" parent="NrSOS7HWTmHr_U7G-Utp-42" vertex="1">
                    <mxGeometry x="25" y="220" width="30" height="10" as="geometry"/>
                </mxCell>
                <mxCell id="NrSOS7HWTmHr_U7G-Utp-110" value="A7" style="text;html=1;align=center;verticalAlign=middle;whiteSpace=wrap;rounded=0;fontColor=#FFFFFF;container=0;" parent="NrSOS7HWTmHr_U7G-Utp-42" vertex="1">
                    <mxGeometry x="25" y="240" width="30" height="10" as="geometry"/>
                </mxCell>
                <mxCell id="NrSOS7HWTmHr_U7G-Utp-111" value="" style="rounded=1;whiteSpace=wrap;html=1;strokeColor=none;fillColor=#66FFB3;rotation=90;" parent="NrSOS7HWTmHr_U7G-Utp-42" vertex="1">
                    <mxGeometry x="79.87" y="280.75" width="10.5" height="7" as="geometry"/>
                </mxCell>
                <mxCell id="NrSOS7HWTmHr_U7G-Utp-112" value="" style="rounded=0;whiteSpace=wrap;html=1;strokeColor=none;fillColor=#E8E8E8;rotation=90;" parent="NrSOS7HWTmHr_U7G-Utp-42" vertex="1">
                    <mxGeometry x="62.620000000000005" y="280" width="25" height="8.5" as="geometry"/>
                </mxCell>
                <mxCell id="NrSOS7HWTmHr_U7G-Utp-113" value="" style="rounded=1;whiteSpace=wrap;html=1;strokeColor=none;fillColor=#66FFB3;rotation=90;" parent="NrSOS7HWTmHr_U7G-Utp-42" vertex="1">
                    <mxGeometry x="69.87" y="280.75" width="10.5" height="7" as="geometry"/>
                </mxCell>
                <mxCell id="NrSOS7HWTmHr_U7G-Utp-114" value="" style="rounded=0;whiteSpace=wrap;html=1;strokeColor=none;fillColor=#E8E8E8;rotation=90;" parent="NrSOS7HWTmHr_U7G-Utp-42" vertex="1">
                    <mxGeometry x="52.870000000000005" y="280" width="25" height="8.5" as="geometry"/>
                </mxCell>
                <mxCell id="NrSOS7HWTmHr_U7G-Utp-115" value="" style="rounded=1;whiteSpace=wrap;html=1;strokeColor=none;fillColor=#66FFB3;rotation=90;" parent="NrSOS7HWTmHr_U7G-Utp-42" vertex="1">
                    <mxGeometry x="60.120000000000005" y="280.75" width="10.5" height="7" as="geometry"/>
                </mxCell>
                <mxCell id="NrSOS7HWTmHr_U7G-Utp-116" value="" style="rounded=0;whiteSpace=wrap;html=1;strokeColor=none;fillColor=#E8E8E8;rotation=90;" parent="NrSOS7HWTmHr_U7G-Utp-42" vertex="1">
                    <mxGeometry x="42.370000000000005" y="280" width="25" height="8.5" as="geometry"/>
                </mxCell>
                <mxCell id="NrSOS7HWTmHr_U7G-Utp-117" value="" style="rounded=1;whiteSpace=wrap;html=1;strokeColor=none;fillColor=#66FFB3;rotation=90;" parent="NrSOS7HWTmHr_U7G-Utp-42" vertex="1">
                    <mxGeometry x="49.620000000000005" y="280.75" width="10.5" height="7" as="geometry"/>
                </mxCell>
                <mxCell id="NrSOS7HWTmHr_U7G-Utp-129" value="" style="group;rotation=-90;" parent="1" vertex="1" connectable="0">
                    <mxGeometry x="-101" y="973" width="173" height="89" as="geometry"/>
                </mxCell>
                <mxCell id="NrSOS7HWTmHr_U7G-Utp-130" value="" style="rounded=0;whiteSpace=wrap;html=1;gradientColor=#006633;fillColor=#009900;strokeColor=none;rotation=-90;" parent="NrSOS7HWTmHr_U7G-Utp-129" vertex="1">
                    <mxGeometry width="173" height="89" as="geometry"/>
                </mxCell>
                <mxCell id="NrSOS7HWTmHr_U7G-Utp-131" value="" style="ellipse;whiteSpace=wrap;html=1;aspect=fixed;strokeColor=#E8E8E8;fillColor=#0F0F4A;strokeWidth=4;rotation=0;container=0;" parent="NrSOS7HWTmHr_U7G-Utp-129" vertex="1">
                    <mxGeometry x="117" y="-2" width="10" height="10" as="geometry"/>
                </mxCell>
                <mxCell id="NrSOS7HWTmHr_U7G-Utp-132" value="" style="ellipse;whiteSpace=wrap;html=1;aspect=fixed;strokeColor=#E8E8E8;fillColor=#0F0F4A;strokeWidth=4;rotation=0;container=0;" parent="NrSOS7HWTmHr_U7G-Utp-129" vertex="1">
                    <mxGeometry x="117" y="-19" width="10" height="10" as="geometry"/>
                </mxCell>
                <mxCell id="NrSOS7HWTmHr_U7G-Utp-133" value="" style="ellipse;whiteSpace=wrap;html=1;aspect=fixed;strokeColor=#E8E8E8;fillColor=#0F0F4A;strokeWidth=4;rotation=0;container=0;" parent="NrSOS7HWTmHr_U7G-Utp-129" vertex="1">
                    <mxGeometry x="117" y="-37" width="10" height="10" as="geometry"/>
                </mxCell>
                <mxCell id="NrSOS7HWTmHr_U7G-Utp-194" value="" style="ellipse;whiteSpace=wrap;html=1;aspect=fixed;strokeColor=#E8E8E8;fillColor=#0F0F4A;strokeWidth=4;rotation=0;container=0;" parent="NrSOS7HWTmHr_U7G-Utp-129" vertex="1">
                    <mxGeometry x="117" y="15" width="10" height="10" as="geometry"/>
                </mxCell>
                <mxCell id="NrSOS7HWTmHr_U7G-Utp-155" value="" style="group" parent="1" vertex="1" connectable="0">
                    <mxGeometry x="495" y="1021" width="32" height="42.67000000000007" as="geometry"/>
                </mxCell>
                <mxCell id="NrSOS7HWTmHr_U7G-Utp-140" value="" style="rounded=0;whiteSpace=wrap;html=1;gradientColor=#808080;fillColor=#E8E8E8;strokeColor=#4D4D4D;" parent="NrSOS7HWTmHr_U7G-Utp-155" vertex="1">
                    <mxGeometry y="5.333750000000009" width="32" height="32.002500000000005" as="geometry"/>
                </mxCell>
                <mxCell id="NrSOS7HWTmHr_U7G-Utp-141" value="" style="ellipse;whiteSpace=wrap;html=1;aspect=fixed;fillColor=#4D4D4D;gradientColor=default;" parent="NrSOS7HWTmHr_U7G-Utp-155" vertex="1">
                    <mxGeometry x="5.333333333333371" y="10.667500000000018" width="21.333333333333332" height="21.333333333333332" as="geometry"/>
                </mxCell>
                <mxCell id="NrSOS7HWTmHr_U7G-Utp-142" value="" style="ellipse;whiteSpace=wrap;html=1;aspect=fixed;fillColor=#4D4D4D;strokeColor=none;" parent="NrSOS7HWTmHr_U7G-Utp-155" vertex="1">
                    <mxGeometry x="2.1333333333333258" y="7.4672500000000355" width="5.333333333333333" height="5.333333333333333" as="geometry"/>
                </mxCell>
                <mxCell id="NrSOS7HWTmHr_U7G-Utp-143" value="" style="ellipse;whiteSpace=wrap;html=1;aspect=fixed;fillColor=#4D4D4D;strokeColor=none;" parent="NrSOS7HWTmHr_U7G-Utp-155" vertex="1">
                    <mxGeometry x="2.1333333333333258" y="30.402375000000006" width="5.333333333333333" height="5.333333333333333" as="geometry"/>
                </mxCell>
                <mxCell id="NrSOS7HWTmHr_U7G-Utp-144" value="" style="ellipse;whiteSpace=wrap;html=1;aspect=fixed;fillColor=#4D4D4D;strokeColor=none;" parent="NrSOS7HWTmHr_U7G-Utp-155" vertex="1">
                    <mxGeometry x="24.533333333333303" y="7.4672500000000355" width="5.333333333333333" height="5.333333333333333" as="geometry"/>
                </mxCell>
                <mxCell id="NrSOS7HWTmHr_U7G-Utp-145" value="" style="ellipse;whiteSpace=wrap;html=1;aspect=fixed;fillColor=#4D4D4D;strokeColor=none;" parent="NrSOS7HWTmHr_U7G-Utp-155" vertex="1">
                    <mxGeometry x="24.533333333333303" y="30.402375000000006" width="5.333333333333333" height="5.333333333333333" as="geometry"/>
                </mxCell>
                <mxCell id="NrSOS7HWTmHr_U7G-Utp-150" value="" style="rounded=0;whiteSpace=wrap;html=1;strokeColor=none;fillColor=#4d4d4d;" parent="NrSOS7HWTmHr_U7G-Utp-155" vertex="1">
                    <mxGeometry x="5.330000000000041" width="4" height="5.33" as="geometry"/>
                </mxCell>
                <mxCell id="NrSOS7HWTmHr_U7G-Utp-152" value="" style="rounded=0;whiteSpace=wrap;html=1;strokeColor=none;fillColor=#4d4d4d;" parent="NrSOS7HWTmHr_U7G-Utp-155" vertex="1">
                    <mxGeometry x="22.670000000000073" width="4" height="5.33" as="geometry"/>
                </mxCell>
                <mxCell id="NrSOS7HWTmHr_U7G-Utp-153" value="" style="rounded=0;whiteSpace=wrap;html=1;strokeColor=none;fillColor=#4d4d4d;" parent="NrSOS7HWTmHr_U7G-Utp-155" vertex="1">
                    <mxGeometry x="22.670000000000073" y="37.34000000000003" width="4" height="5.33" as="geometry"/>
                </mxCell>
                <mxCell id="NrSOS7HWTmHr_U7G-Utp-154" value="" style="rounded=0;whiteSpace=wrap;html=1;strokeColor=none;fillColor=#4d4d4d;" parent="NrSOS7HWTmHr_U7G-Utp-155" vertex="1">
                    <mxGeometry x="5.330000000000041" y="37.34000000000003" width="4" height="5.33" as="geometry"/>
                </mxCell>
                <mxCell id="NrSOS7HWTmHr_U7G-Utp-63" style="edgeStyle=orthogonalEdgeStyle;rounded=0;orthogonalLoop=1;jettySize=auto;html=1;endArrow=none;endFill=0;strokeColor=#FF0000;entryX=0.5;entryY=0;entryDx=0;entryDy=0;exitX=0.5;exitY=0;exitDx=0;exitDy=0;" parent="1" source="NrSOS7HWTmHr_U7G-Utp-67" target="NrSOS7HWTmHr_U7G-Utp-150" edge="1">
                    <mxGeometry relative="1" as="geometry">
                        <mxPoint x="465" y="949" as="targetPoint"/>
                        <Array as="points">
                            <mxPoint x="502" y="966"/>
                        </Array>
                    </mxGeometry>
                </mxCell>
                <mxCell id="NrSOS7HWTmHr_U7G-Utp-74" style="edgeStyle=orthogonalEdgeStyle;rounded=0;orthogonalLoop=1;jettySize=auto;html=1;endArrow=none;endFill=0;entryX=0.5;entryY=1;entryDx=0;entryDy=0;" parent="1" source="NrSOS7HWTmHr_U7G-Utp-75" target="NrSOS7HWTmHr_U7G-Utp-153" edge="1">
                    <mxGeometry relative="1" as="geometry">
                        <mxPoint x="487" y="989" as="targetPoint"/>
                    </mxGeometry>
                </mxCell>
                <mxCell id="NrSOS7HWTmHr_U7G-Utp-156" value="" style="group" parent="1" vertex="1" connectable="0">
                    <mxGeometry x="542" y="1022" width="32" height="42.67000000000007" as="geometry"/>
                </mxCell>
                <mxCell id="NrSOS7HWTmHr_U7G-Utp-157" value="" style="rounded=0;whiteSpace=wrap;html=1;gradientColor=#808080;fillColor=#E8E8E8;strokeColor=#4D4D4D;" parent="NrSOS7HWTmHr_U7G-Utp-156" vertex="1">
                    <mxGeometry y="5.333750000000009" width="32" height="32.002500000000005" as="geometry"/>
                </mxCell>
                <mxCell id="NrSOS7HWTmHr_U7G-Utp-158" value="" style="ellipse;whiteSpace=wrap;html=1;aspect=fixed;fillColor=#4D4D4D;gradientColor=default;" parent="NrSOS7HWTmHr_U7G-Utp-156" vertex="1">
                    <mxGeometry x="5.333333333333371" y="10.667500000000018" width="21.333333333333332" height="21.333333333333332" as="geometry"/>
                </mxCell>
                <mxCell id="NrSOS7HWTmHr_U7G-Utp-159" value="" style="ellipse;whiteSpace=wrap;html=1;aspect=fixed;fillColor=#4D4D4D;strokeColor=none;" parent="NrSOS7HWTmHr_U7G-Utp-156" vertex="1">
                    <mxGeometry x="2.1333333333333258" y="7.4672500000000355" width="5.333333333333333" height="5.333333333333333" as="geometry"/>
                </mxCell>
                <mxCell id="NrSOS7HWTmHr_U7G-Utp-160" value="" style="ellipse;whiteSpace=wrap;html=1;aspect=fixed;fillColor=#4D4D4D;strokeColor=none;" parent="NrSOS7HWTmHr_U7G-Utp-156" vertex="1">
                    <mxGeometry x="2.1333333333333258" y="30.402375000000006" width="5.333333333333333" height="5.333333333333333" as="geometry"/>
                </mxCell>
                <mxCell id="NrSOS7HWTmHr_U7G-Utp-161" value="" style="ellipse;whiteSpace=wrap;html=1;aspect=fixed;fillColor=#4D4D4D;strokeColor=none;" parent="NrSOS7HWTmHr_U7G-Utp-156" vertex="1">
                    <mxGeometry x="24.533333333333303" y="7.4672500000000355" width="5.333333333333333" height="5.333333333333333" as="geometry"/>
                </mxCell>
                <mxCell id="NrSOS7HWTmHr_U7G-Utp-162" value="" style="ellipse;whiteSpace=wrap;html=1;aspect=fixed;fillColor=#4D4D4D;strokeColor=none;" parent="NrSOS7HWTmHr_U7G-Utp-156" vertex="1">
                    <mxGeometry x="24.533333333333303" y="30.402375000000006" width="5.333333333333333" height="5.333333333333333" as="geometry"/>
                </mxCell>
                <mxCell id="NrSOS7HWTmHr_U7G-Utp-163" value="" style="rounded=0;whiteSpace=wrap;html=1;strokeColor=none;fillColor=#4d4d4d;" parent="NrSOS7HWTmHr_U7G-Utp-156" vertex="1">
                    <mxGeometry x="5.330000000000041" width="4" height="5.33" as="geometry"/>
                </mxCell>
                <mxCell id="NrSOS7HWTmHr_U7G-Utp-164" value="" style="rounded=0;whiteSpace=wrap;html=1;strokeColor=none;fillColor=#4d4d4d;" parent="NrSOS7HWTmHr_U7G-Utp-156" vertex="1">
                    <mxGeometry x="22.670000000000073" width="4" height="5.33" as="geometry"/>
                </mxCell>
                <mxCell id="NrSOS7HWTmHr_U7G-Utp-165" value="" style="rounded=0;whiteSpace=wrap;html=1;strokeColor=none;fillColor=#4d4d4d;" parent="NrSOS7HWTmHr_U7G-Utp-156" vertex="1">
                    <mxGeometry x="22.670000000000073" y="37.34000000000003" width="4" height="5.33" as="geometry"/>
                </mxCell>
                <mxCell id="NrSOS7HWTmHr_U7G-Utp-166" value="" style="rounded=0;whiteSpace=wrap;html=1;strokeColor=none;fillColor=#4d4d4d;" parent="NrSOS7HWTmHr_U7G-Utp-156" vertex="1">
                    <mxGeometry x="5.330000000000041" y="37.34000000000003" width="4" height="5.33" as="geometry"/>
                </mxCell>
                <mxCell id="NrSOS7HWTmHr_U7G-Utp-167" style="edgeStyle=orthogonalEdgeStyle;rounded=0;orthogonalLoop=1;jettySize=auto;html=1;entryX=0.5;entryY=0;entryDx=0;entryDy=0;endArrow=none;endFill=0;strokeColor=#FF0000;exitX=0.5;exitY=0;exitDx=0;exitDy=0;jumpStyle=arc;" parent="1" source="NrSOS7HWTmHr_U7G-Utp-66" target="NrSOS7HWTmHr_U7G-Utp-163" edge="1">
                    <mxGeometry relative="1" as="geometry"/>
                </mxCell>
                <mxCell id="NrSOS7HWTmHr_U7G-Utp-168" style="edgeStyle=orthogonalEdgeStyle;rounded=0;orthogonalLoop=1;jettySize=auto;html=1;entryX=0.5;entryY=1;entryDx=0;entryDy=0;endArrow=none;endFill=0;jumpStyle=arc;" parent="1" source="NrSOS7HWTmHr_U7G-Utp-75" target="NrSOS7HWTmHr_U7G-Utp-165" edge="1">
                    <mxGeometry relative="1" as="geometry"/>
                </mxCell>
                <mxCell id="NrSOS7HWTmHr_U7G-Utp-169" value="" style="group" parent="1" vertex="1" connectable="0">
                    <mxGeometry x="906" y="695" width="60" height="110" as="geometry"/>
                </mxCell>
                <mxCell id="NrSOS7HWTmHr_U7G-Utp-170" value="" style="rounded=0;whiteSpace=wrap;html=1;fillColor=#B3B3B3;strokeColor=none;" parent="NrSOS7HWTmHr_U7G-Utp-169" vertex="1">
                    <mxGeometry x="42" y="70" width="4" height="30" as="geometry"/>
                </mxCell>
                <mxCell id="NrSOS7HWTmHr_U7G-Utp-171" value="" style="rounded=0;whiteSpace=wrap;html=1;fillColor=#B3B3B3;strokeColor=none;" parent="NrSOS7HWTmHr_U7G-Utp-169" vertex="1">
                    <mxGeometry x="13" y="70" width="4" height="40" as="geometry"/>
                </mxCell>
                <mxCell id="NrSOS7HWTmHr_U7G-Utp-172" value="" style="ellipse;whiteSpace=wrap;html=1;aspect=fixed;fillColor=#FFD966;" parent="NrSOS7HWTmHr_U7G-Utp-169" vertex="1">
                    <mxGeometry width="60" height="60" as="geometry"/>
                </mxCell>
                <mxCell id="NrSOS7HWTmHr_U7G-Utp-173" value="" style="rounded=0;whiteSpace=wrap;html=1;fillColor=#FFD966;shadow=0;" parent="NrSOS7HWTmHr_U7G-Utp-169" vertex="1">
                    <mxGeometry y="30" width="60" height="40" as="geometry"/>
                </mxCell>
                <mxCell id="NrSOS7HWTmHr_U7G-Utp-174" value="" style="group" parent="1" vertex="1" connectable="0">
                    <mxGeometry x="992" y="692" width="60" height="110" as="geometry"/>
                </mxCell>
                <mxCell id="NrSOS7HWTmHr_U7G-Utp-175" value="" style="rounded=0;whiteSpace=wrap;html=1;fillColor=#B3B3B3;strokeColor=none;" parent="NrSOS7HWTmHr_U7G-Utp-174" vertex="1">
                    <mxGeometry x="42" y="70" width="4" height="30" as="geometry"/>
                </mxCell>
                <mxCell id="NrSOS7HWTmHr_U7G-Utp-176" value="" style="rounded=0;whiteSpace=wrap;html=1;fillColor=#B3B3B3;strokeColor=none;" parent="NrSOS7HWTmHr_U7G-Utp-174" vertex="1">
                    <mxGeometry x="13" y="70" width="4" height="40" as="geometry"/>
                </mxCell>
                <mxCell id="NrSOS7HWTmHr_U7G-Utp-177" value="" style="ellipse;whiteSpace=wrap;html=1;aspect=fixed;fillColor=#FFD966;" parent="NrSOS7HWTmHr_U7G-Utp-174" vertex="1">
                    <mxGeometry width="60" height="60" as="geometry"/>
                </mxCell>
                <mxCell id="NrSOS7HWTmHr_U7G-Utp-178" value="" style="rounded=0;whiteSpace=wrap;html=1;fillColor=#FFD966;shadow=0;" parent="NrSOS7HWTmHr_U7G-Utp-174" vertex="1">
                    <mxGeometry y="30" width="60" height="40" as="geometry"/>
                </mxCell>
                <mxCell id="NrSOS7HWTmHr_U7G-Utp-179" value="" style="group" parent="1" vertex="1" connectable="0">
                    <mxGeometry x="1088" y="692" width="60" height="110" as="geometry"/>
                </mxCell>
                <mxCell id="NrSOS7HWTmHr_U7G-Utp-180" value="" style="rounded=0;whiteSpace=wrap;html=1;fillColor=#B3B3B3;strokeColor=none;" parent="NrSOS7HWTmHr_U7G-Utp-179" vertex="1">
                    <mxGeometry x="42" y="70" width="4" height="30" as="geometry"/>
                </mxCell>
                <mxCell id="NrSOS7HWTmHr_U7G-Utp-181" value="" style="rounded=0;whiteSpace=wrap;html=1;fillColor=#B3B3B3;strokeColor=none;" parent="NrSOS7HWTmHr_U7G-Utp-179" vertex="1">
                    <mxGeometry x="13" y="70" width="4" height="40" as="geometry"/>
                </mxCell>
                <mxCell id="NrSOS7HWTmHr_U7G-Utp-182" value="" style="ellipse;whiteSpace=wrap;html=1;aspect=fixed;fillColor=#FFD966;" parent="NrSOS7HWTmHr_U7G-Utp-179" vertex="1">
                    <mxGeometry width="60" height="60" as="geometry"/>
                </mxCell>
                <mxCell id="NrSOS7HWTmHr_U7G-Utp-183" value="" style="rounded=0;whiteSpace=wrap;html=1;fillColor=#FFD966;shadow=0;" parent="NrSOS7HWTmHr_U7G-Utp-179" vertex="1">
                    <mxGeometry y="30" width="60" height="40" as="geometry"/>
                </mxCell>
                <mxCell id="NrSOS7HWTmHr_U7G-Utp-184" value="" style="group" parent="1" vertex="1" connectable="0">
                    <mxGeometry x="1272" y="690" width="60" height="110" as="geometry"/>
                </mxCell>
                <mxCell id="NrSOS7HWTmHr_U7G-Utp-185" value="" style="rounded=0;whiteSpace=wrap;html=1;fillColor=#B3B3B3;strokeColor=none;" parent="NrSOS7HWTmHr_U7G-Utp-184" vertex="1">
                    <mxGeometry x="42" y="70" width="4" height="30" as="geometry"/>
                </mxCell>
                <mxCell id="NrSOS7HWTmHr_U7G-Utp-186" value="" style="rounded=0;whiteSpace=wrap;html=1;fillColor=#B3B3B3;strokeColor=none;" parent="NrSOS7HWTmHr_U7G-Utp-184" vertex="1">
                    <mxGeometry x="13" y="70" width="4" height="40" as="geometry"/>
                </mxCell>
                <mxCell id="NrSOS7HWTmHr_U7G-Utp-187" value="" style="ellipse;whiteSpace=wrap;html=1;aspect=fixed;fillColor=#FFD966;" parent="NrSOS7HWTmHr_U7G-Utp-184" vertex="1">
                    <mxGeometry width="60" height="60" as="geometry"/>
                </mxCell>
                <mxCell id="NrSOS7HWTmHr_U7G-Utp-188" value="" style="rounded=0;whiteSpace=wrap;html=1;fillColor=#FFD966;shadow=0;" parent="NrSOS7HWTmHr_U7G-Utp-184" vertex="1">
                    <mxGeometry y="30" width="60" height="40" as="geometry"/>
                </mxCell>
                <mxCell id="NrSOS7HWTmHr_U7G-Utp-189" value="" style="group" parent="1" vertex="1" connectable="0">
                    <mxGeometry x="1183" y="691" width="60" height="110" as="geometry"/>
                </mxCell>
                <mxCell id="NrSOS7HWTmHr_U7G-Utp-190" value="" style="rounded=0;whiteSpace=wrap;html=1;fillColor=#B3B3B3;strokeColor=none;" parent="NrSOS7HWTmHr_U7G-Utp-189" vertex="1">
                    <mxGeometry x="42" y="70" width="4" height="30" as="geometry"/>
                </mxCell>
                <mxCell id="NrSOS7HWTmHr_U7G-Utp-191" value="" style="rounded=0;whiteSpace=wrap;html=1;fillColor=#B3B3B3;strokeColor=none;" parent="NrSOS7HWTmHr_U7G-Utp-189" vertex="1">
                    <mxGeometry x="13" y="70" width="4" height="40" as="geometry"/>
                </mxCell>
                <mxCell id="NrSOS7HWTmHr_U7G-Utp-192" value="" style="ellipse;whiteSpace=wrap;html=1;aspect=fixed;fillColor=#FFD966;" parent="NrSOS7HWTmHr_U7G-Utp-189" vertex="1">
                    <mxGeometry width="60" height="60" as="geometry"/>
                </mxCell>
                <mxCell id="NrSOS7HWTmHr_U7G-Utp-193" value="" style="rounded=0;whiteSpace=wrap;html=1;fillColor=#FFD966;shadow=0;" parent="NrSOS7HWTmHr_U7G-Utp-189" vertex="1">
                    <mxGeometry y="30" width="60" height="40" as="geometry"/>
                </mxCell>
                <mxCell id="NrSOS7HWTmHr_U7G-Utp-195" value="" style="pointerEvents=1;verticalLabelPosition=bottom;shadow=0;dashed=0;align=center;html=1;verticalAlign=top;shape=mxgraph.electrical.resistors.resistor_2;rotation=-90;" parent="1" vertex="1">
                    <mxGeometry x="834.5" y="991" width="50" height="20" as="geometry"/>
                </mxCell>
                <mxCell id="NrSOS7HWTmHr_U7G-Utp-196" value="" style="pointerEvents=1;verticalLabelPosition=bottom;shadow=0;dashed=0;align=center;html=1;verticalAlign=top;shape=mxgraph.electrical.resistors.resistor_2;rotation=-90;" parent="1" vertex="1">
                    <mxGeometry x="924" y="993" width="50" height="20" as="geometry"/>
                </mxCell>
                <mxCell id="NrSOS7HWTmHr_U7G-Utp-203" style="edgeStyle=orthogonalEdgeStyle;rounded=0;orthogonalLoop=1;jettySize=auto;html=1;entryX=0.5;entryY=0;entryDx=0;entryDy=0;exitX=0;exitY=0.5;exitDx=0;exitDy=0;exitPerimeter=0;endArrow=none;endFill=0;jumpStyle=arc;" parent="1" source="NrSOS7HWTmHr_U7G-Utp-197" target="NrSOS7HWTmHr_U7G-Utp-75" edge="1">
                    <mxGeometry relative="1" as="geometry"/>
                </mxCell>
                <mxCell id="NrSOS7HWTmHr_U7G-Utp-197" value="" style="pointerEvents=1;verticalLabelPosition=bottom;shadow=0;dashed=0;align=center;html=1;verticalAlign=top;shape=mxgraph.electrical.resistors.resistor_2;rotation=-90;" parent="1" vertex="1">
                    <mxGeometry x="1011" y="990" width="50" height="20" as="geometry"/>
                </mxCell>
                <mxCell id="NrSOS7HWTmHr_U7G-Utp-198" value="" style="pointerEvents=1;verticalLabelPosition=bottom;shadow=0;dashed=0;align=center;html=1;verticalAlign=top;shape=mxgraph.electrical.resistors.resistor_2;rotation=-90;" parent="1" vertex="1">
                    <mxGeometry x="1107" y="992" width="50" height="20" as="geometry"/>
                </mxCell>
                <mxCell id="NrSOS7HWTmHr_U7G-Utp-199" value="" style="pointerEvents=1;verticalLabelPosition=bottom;shadow=0;dashed=0;align=center;html=1;verticalAlign=top;shape=mxgraph.electrical.resistors.resistor_2;rotation=-90;" parent="1" vertex="1">
                    <mxGeometry x="1202" y="991" width="50" height="20" as="geometry"/>
                </mxCell>
                <mxCell id="NrSOS7HWTmHr_U7G-Utp-200" value="" style="pointerEvents=1;verticalLabelPosition=bottom;shadow=0;dashed=0;align=center;html=1;verticalAlign=top;shape=mxgraph.electrical.resistors.resistor_2;rotation=-90;" parent="1" vertex="1">
                    <mxGeometry x="1291" y="994" width="50" height="20" as="geometry"/>
                </mxCell>
                <mxCell id="NrSOS7HWTmHr_U7G-Utp-201" style="edgeStyle=orthogonalEdgeStyle;rounded=0;orthogonalLoop=1;jettySize=auto;html=1;entryX=0.5;entryY=0;entryDx=0;entryDy=0;exitX=0;exitY=0.5;exitDx=0;exitDy=0;exitPerimeter=0;endArrow=none;endFill=0;jumpStyle=arc;" parent="1" source="NrSOS7HWTmHr_U7G-Utp-195" target="NrSOS7HWTmHr_U7G-Utp-75" edge="1">
                    <mxGeometry relative="1" as="geometry"/>
                </mxCell>
                <mxCell id="NrSOS7HWTmHr_U7G-Utp-202" style="edgeStyle=orthogonalEdgeStyle;rounded=0;orthogonalLoop=1;jettySize=auto;html=1;entryX=0.5;entryY=0;entryDx=0;entryDy=0;exitX=0;exitY=0.5;exitDx=0;exitDy=0;exitPerimeter=0;endArrow=none;endFill=0;jumpStyle=arc;" parent="1" source="NrSOS7HWTmHr_U7G-Utp-196" target="NrSOS7HWTmHr_U7G-Utp-75" edge="1">
                    <mxGeometry relative="1" as="geometry">
                        <mxPoint x="609" y="981" as="sourcePoint"/>
                        <mxPoint x="382" y="1116" as="targetPoint"/>
                    </mxGeometry>
                </mxCell>
                <mxCell id="NrSOS7HWTmHr_U7G-Utp-204" style="edgeStyle=orthogonalEdgeStyle;rounded=0;orthogonalLoop=1;jettySize=auto;html=1;entryX=0;entryY=0.5;entryDx=0;entryDy=0;entryPerimeter=0;endArrow=none;endFill=0;jumpStyle=arc;" parent="1" source="NrSOS7HWTmHr_U7G-Utp-75" target="NrSOS7HWTmHr_U7G-Utp-198" edge="1">
                    <mxGeometry relative="1" as="geometry"/>
                </mxCell>
                <mxCell id="NrSOS7HWTmHr_U7G-Utp-205" style="edgeStyle=orthogonalEdgeStyle;rounded=0;orthogonalLoop=1;jettySize=auto;html=1;entryX=0;entryY=0.5;entryDx=0;entryDy=0;entryPerimeter=0;endArrow=none;endFill=0;jumpStyle=arc;" parent="1" source="NrSOS7HWTmHr_U7G-Utp-75" target="NrSOS7HWTmHr_U7G-Utp-199" edge="1">
                    <mxGeometry relative="1" as="geometry"/>
                </mxCell>
                <mxCell id="NrSOS7HWTmHr_U7G-Utp-206" style="edgeStyle=orthogonalEdgeStyle;rounded=0;orthogonalLoop=1;jettySize=auto;html=1;entryX=0;entryY=0.5;entryDx=0;entryDy=0;entryPerimeter=0;endArrow=none;endFill=0;jumpStyle=arc;" parent="1" source="NrSOS7HWTmHr_U7G-Utp-75" target="NrSOS7HWTmHr_U7G-Utp-200" edge="1">
                    <mxGeometry relative="1" as="geometry"/>
                </mxCell>
                <mxCell id="NrSOS7HWTmHr_U7G-Utp-207" style="edgeStyle=orthogonalEdgeStyle;rounded=0;orthogonalLoop=1;jettySize=auto;html=1;entryX=1;entryY=0.5;entryDx=0;entryDy=0;entryPerimeter=0;endArrow=none;endFill=0;jumpStyle=arc;" parent="1" source="NrSOS7HWTmHr_U7G-Utp-21" target="NrSOS7HWTmHr_U7G-Utp-195" edge="1">
                    <mxGeometry relative="1" as="geometry"/>
                </mxCell>
                <mxCell id="NrSOS7HWTmHr_U7G-Utp-208" style="edgeStyle=orthogonalEdgeStyle;rounded=0;orthogonalLoop=1;jettySize=auto;html=1;entryX=1;entryY=0.5;entryDx=0;entryDy=0;entryPerimeter=0;endArrow=none;endFill=0;jumpStyle=arc;" parent="1" source="NrSOS7HWTmHr_U7G-Utp-170" target="NrSOS7HWTmHr_U7G-Utp-196" edge="1">
                    <mxGeometry relative="1" as="geometry"/>
                </mxCell>
                <mxCell id="NrSOS7HWTmHr_U7G-Utp-209" style="edgeStyle=orthogonalEdgeStyle;rounded=0;orthogonalLoop=1;jettySize=auto;html=1;entryX=1;entryY=0.5;entryDx=0;entryDy=0;entryPerimeter=0;endArrow=none;endFill=0;jumpStyle=arc;" parent="1" source="NrSOS7HWTmHr_U7G-Utp-175" target="NrSOS7HWTmHr_U7G-Utp-197" edge="1">
                    <mxGeometry relative="1" as="geometry"/>
                </mxCell>
                <mxCell id="NrSOS7HWTmHr_U7G-Utp-210" style="edgeStyle=orthogonalEdgeStyle;rounded=0;orthogonalLoop=1;jettySize=auto;html=1;entryX=1;entryY=0.5;entryDx=0;entryDy=0;entryPerimeter=0;endArrow=none;endFill=0;jumpStyle=arc;" parent="1" source="NrSOS7HWTmHr_U7G-Utp-180" target="NrSOS7HWTmHr_U7G-Utp-198" edge="1">
                    <mxGeometry relative="1" as="geometry"/>
                </mxCell>
                <mxCell id="NrSOS7HWTmHr_U7G-Utp-211" style="edgeStyle=orthogonalEdgeStyle;rounded=0;orthogonalLoop=1;jettySize=auto;html=1;entryX=1;entryY=0.5;entryDx=0;entryDy=0;entryPerimeter=0;endArrow=none;endFill=0;jumpStyle=arc;" parent="1" source="NrSOS7HWTmHr_U7G-Utp-190" target="NrSOS7HWTmHr_U7G-Utp-199" edge="1">
                    <mxGeometry relative="1" as="geometry"/>
                </mxCell>
                <mxCell id="NrSOS7HWTmHr_U7G-Utp-212" style="edgeStyle=orthogonalEdgeStyle;rounded=0;orthogonalLoop=1;jettySize=auto;html=1;entryX=1;entryY=0.5;entryDx=0;entryDy=0;entryPerimeter=0;endArrow=none;endFill=0;jumpStyle=arc;" parent="1" source="NrSOS7HWTmHr_U7G-Utp-185" target="NrSOS7HWTmHr_U7G-Utp-200" edge="1">
                    <mxGeometry relative="1" as="geometry"/>
                </mxCell>
                <mxCell id="NrSOS7HWTmHr_U7G-Utp-213" value="" style="group" parent="1" vertex="1" connectable="0">
                    <mxGeometry x="729" y="691" width="60" height="110" as="geometry"/>
                </mxCell>
                <mxCell id="NrSOS7HWTmHr_U7G-Utp-214" value="" style="rounded=0;whiteSpace=wrap;html=1;fillColor=#B3B3B3;strokeColor=none;" parent="NrSOS7HWTmHr_U7G-Utp-213" vertex="1">
                    <mxGeometry x="42" y="70" width="4" height="30" as="geometry"/>
                </mxCell>
                <mxCell id="NrSOS7HWTmHr_U7G-Utp-215" value="" style="rounded=0;whiteSpace=wrap;html=1;fillColor=#B3B3B3;strokeColor=none;" parent="NrSOS7HWTmHr_U7G-Utp-213" vertex="1">
                    <mxGeometry x="13" y="72" width="3.8" height="38" as="geometry"/>
                </mxCell>
                <mxCell id="NrSOS7HWTmHr_U7G-Utp-216" value="" style="ellipse;whiteSpace=wrap;html=1;aspect=fixed;fillColor=#dae8fc;strokeColor=#6c8ebf;" parent="NrSOS7HWTmHr_U7G-Utp-213" vertex="1">
                    <mxGeometry width="60" height="60" as="geometry"/>
                </mxCell>
                <mxCell id="NrSOS7HWTmHr_U7G-Utp-217" value="" style="rounded=0;whiteSpace=wrap;html=1;fillColor=#dae8fc;shadow=0;strokeColor=#6c8ebf;" parent="NrSOS7HWTmHr_U7G-Utp-213" vertex="1">
                    <mxGeometry y="30" width="60" height="40" as="geometry"/>
                </mxCell>
                <mxCell id="NrSOS7HWTmHr_U7G-Utp-218" value="" style="group" parent="1" vertex="1" connectable="0">
                    <mxGeometry x="640" y="691" width="60" height="110" as="geometry"/>
                </mxCell>
                <mxCell id="NrSOS7HWTmHr_U7G-Utp-219" value="" style="rounded=0;whiteSpace=wrap;html=1;fillColor=#B3B3B3;strokeColor=none;" parent="NrSOS7HWTmHr_U7G-Utp-218" vertex="1">
                    <mxGeometry x="42" y="70" width="4" height="30" as="geometry"/>
                </mxCell>
                <mxCell id="NrSOS7HWTmHr_U7G-Utp-220" value="" style="rounded=0;whiteSpace=wrap;html=1;fillColor=#B3B3B3;strokeColor=none;" parent="NrSOS7HWTmHr_U7G-Utp-218" vertex="1">
                    <mxGeometry x="13" y="70" width="4" height="40" as="geometry"/>
                </mxCell>
                <mxCell id="NrSOS7HWTmHr_U7G-Utp-221" value="" style="ellipse;whiteSpace=wrap;html=1;aspect=fixed;fillColor=#dae8fc;strokeColor=#6c8ebf;" parent="NrSOS7HWTmHr_U7G-Utp-218" vertex="1">
                    <mxGeometry width="60" height="60" as="geometry"/>
                </mxCell>
                <mxCell id="NrSOS7HWTmHr_U7G-Utp-222" value="" style="rounded=0;whiteSpace=wrap;html=1;fillColor=#dae8fc;shadow=0;strokeColor=#6c8ebf;" parent="NrSOS7HWTmHr_U7G-Utp-218" vertex="1">
                    <mxGeometry y="30" width="60" height="40" as="geometry"/>
                </mxCell>
                <mxCell id="NrSOS7HWTmHr_U7G-Utp-223" value="" style="pointerEvents=1;verticalLabelPosition=bottom;shadow=0;dashed=0;align=center;html=1;verticalAlign=top;shape=mxgraph.electrical.resistors.resistor_2;rotation=-90;" parent="1" vertex="1">
                    <mxGeometry x="659" y="997" width="50" height="20" as="geometry"/>
                </mxCell>
                <mxCell id="NrSOS7HWTmHr_U7G-Utp-224" value="" style="pointerEvents=1;verticalLabelPosition=bottom;shadow=0;dashed=0;align=center;html=1;verticalAlign=top;shape=mxgraph.electrical.resistors.resistor_2;rotation=-90;" parent="1" vertex="1">
                    <mxGeometry x="748" y="1000" width="50" height="20" as="geometry"/>
                </mxCell>
                <mxCell id="NrSOS7HWTmHr_U7G-Utp-225" style="edgeStyle=orthogonalEdgeStyle;rounded=0;orthogonalLoop=1;jettySize=auto;html=1;entryX=1;entryY=0.5;entryDx=0;entryDy=0;entryPerimeter=0;endArrow=none;endFill=0;jumpStyle=arc;" parent="1" source="NrSOS7HWTmHr_U7G-Utp-219" target="NrSOS7HWTmHr_U7G-Utp-223" edge="1">
                    <mxGeometry relative="1" as="geometry"/>
                </mxCell>
                <mxCell id="NrSOS7HWTmHr_U7G-Utp-226" style="edgeStyle=orthogonalEdgeStyle;rounded=0;orthogonalLoop=1;jettySize=auto;html=1;entryX=1;entryY=0.5;entryDx=0;entryDy=0;entryPerimeter=0;endArrow=none;endFill=0;jumpStyle=arc;" parent="1" source="NrSOS7HWTmHr_U7G-Utp-214" target="NrSOS7HWTmHr_U7G-Utp-224" edge="1">
                    <mxGeometry relative="1" as="geometry"/>
                </mxCell>
                <mxCell id="NrSOS7HWTmHr_U7G-Utp-227" style="edgeStyle=orthogonalEdgeStyle;rounded=0;orthogonalLoop=1;jettySize=auto;html=1;entryX=0;entryY=0.5;entryDx=0;entryDy=0;entryPerimeter=0;endArrow=none;endFill=0;jumpStyle=arc;" parent="1" source="NrSOS7HWTmHr_U7G-Utp-75" target="NrSOS7HWTmHr_U7G-Utp-223" edge="1">
                    <mxGeometry relative="1" as="geometry"/>
                </mxCell>
                <mxCell id="NrSOS7HWTmHr_U7G-Utp-228" style="edgeStyle=orthogonalEdgeStyle;rounded=0;orthogonalLoop=1;jettySize=auto;html=1;entryX=0;entryY=0.5;entryDx=0;entryDy=0;entryPerimeter=0;endArrow=none;endFill=0;jumpStyle=arc;" parent="1" source="NrSOS7HWTmHr_U7G-Utp-75" target="NrSOS7HWTmHr_U7G-Utp-224" edge="1">
                    <mxGeometry relative="1" as="geometry"/>
                </mxCell>
                <mxCell id="NrSOS7HWTmHr_U7G-Utp-230" style="edgeStyle=orthogonalEdgeStyle;rounded=0;orthogonalLoop=1;jettySize=auto;html=1;endArrow=none;endFill=0;entryX=0.5;entryY=1;entryDx=0;entryDy=0;strokeColor=#FF0000;jumpStyle=arc;" parent="1" source="NrSOS7HWTmHr_U7G-Utp-47" target="NrSOS7HWTmHr_U7G-Utp-220" edge="1">
                    <mxGeometry relative="1" as="geometry">
                        <mxPoint x="567" y="808" as="targetPoint"/>
                        <Array as="points">
                            <mxPoint x="225" y="886"/>
                            <mxPoint x="225" y="818"/>
                            <mxPoint x="654" y="818"/>
                            <mxPoint x="654" y="801"/>
                        </Array>
                    </mxGeometry>
                </mxCell>
                <mxCell id="NrSOS7HWTmHr_U7G-Utp-231" style="edgeStyle=orthogonalEdgeStyle;rounded=0;orthogonalLoop=1;jettySize=auto;html=1;entryX=0.5;entryY=0;entryDx=0;entryDy=0;exitX=0.5;exitY=1;exitDx=0;exitDy=0;endArrow=none;endFill=0;strokeColor=#FF0000;jumpStyle=arc;" parent="1" source="NrSOS7HWTmHr_U7G-Utp-215" target="NrSOS7HWTmHr_U7G-Utp-65" edge="1">
                    <mxGeometry relative="1" as="geometry">
                        <Array as="points">
                            <mxPoint x="744" y="839"/>
                            <mxPoint x="400" y="839"/>
                            <mxPoint x="400" y="926"/>
                        </Array>
                    </mxGeometry>
                </mxCell>
                <mxCell id="NrSOS7HWTmHr_U7G-Utp-233" style="edgeStyle=orthogonalEdgeStyle;rounded=0;orthogonalLoop=1;jettySize=auto;html=1;entryX=0.5;entryY=1;entryDx=0;entryDy=0;endArrow=none;endFill=0;strokeColor=#FF0000;jumpStyle=arc;" parent="1" source="NrSOS7HWTmHr_U7G-Utp-68" target="NrSOS7HWTmHr_U7G-Utp-22" edge="1">
                    <mxGeometry relative="1" as="geometry">
                        <Array as="points">
                            <mxPoint x="412" y="986"/>
                            <mxPoint x="412" y="851"/>
                            <mxPoint x="830" y="851"/>
                        </Array>
                    </mxGeometry>
                </mxCell>
                <mxCell id="NrSOS7HWTmHr_U7G-Utp-234" style="edgeStyle=orthogonalEdgeStyle;rounded=0;orthogonalLoop=1;jettySize=auto;html=1;entryX=0.5;entryY=1;entryDx=0;entryDy=0;endArrow=none;endFill=0;strokeColor=#FF0000;jumpStyle=arc;" parent="1" source="NrSOS7HWTmHr_U7G-Utp-69" target="NrSOS7HWTmHr_U7G-Utp-171" edge="1">
                    <mxGeometry relative="1" as="geometry">
                        <Array as="points">
                            <mxPoint x="427" y="1006"/>
                            <mxPoint x="427" y="865"/>
                            <mxPoint x="920" y="865"/>
                            <mxPoint x="920" y="805"/>
                        </Array>
                    </mxGeometry>
                </mxCell>
                <mxCell id="NrSOS7HWTmHr_U7G-Utp-235" style="edgeStyle=orthogonalEdgeStyle;rounded=0;orthogonalLoop=1;jettySize=auto;html=1;entryX=0.5;entryY=1;entryDx=0;entryDy=0;endArrow=none;endFill=0;strokeColor=#FF0000;jumpStyle=arc;" parent="1" source="NrSOS7HWTmHr_U7G-Utp-70" target="NrSOS7HWTmHr_U7G-Utp-176" edge="1">
                    <mxGeometry relative="1" as="geometry">
                        <mxPoint x="425.11766501034015" y="1026" as="targetPoint"/>
                        <Array as="points">
                            <mxPoint x="439" y="1026"/>
                            <mxPoint x="439" y="880"/>
                            <mxPoint x="1006" y="880"/>
                            <mxPoint x="1006" y="802"/>
                        </Array>
                    </mxGeometry>
                </mxCell>
                <mxCell id="NrSOS7HWTmHr_U7G-Utp-237" style="edgeStyle=orthogonalEdgeStyle;rounded=0;orthogonalLoop=1;jettySize=auto;html=1;entryX=0.5;entryY=1;entryDx=0;entryDy=0;endArrow=none;endFill=0;strokeColor=#FF0000;jumpStyle=arc;" parent="1" source="NrSOS7HWTmHr_U7G-Utp-71" target="NrSOS7HWTmHr_U7G-Utp-181" edge="1">
                    <mxGeometry relative="1" as="geometry">
                        <Array as="points">
                            <mxPoint x="452" y="1046"/>
                            <mxPoint x="452" y="894"/>
                            <mxPoint x="1103" y="894"/>
                        </Array>
                    </mxGeometry>
                </mxCell>
                <mxCell id="NrSOS7HWTmHr_U7G-Utp-238" style="edgeStyle=orthogonalEdgeStyle;rounded=0;orthogonalLoop=1;jettySize=auto;html=1;entryX=0.5;entryY=1;entryDx=0;entryDy=0;endArrow=none;endFill=0;strokeColor=#FF0000;jumpStyle=arc;" parent="1" source="NrSOS7HWTmHr_U7G-Utp-72" target="NrSOS7HWTmHr_U7G-Utp-191" edge="1">
                    <mxGeometry relative="1" as="geometry">
                        <Array as="points">
                            <mxPoint x="466" y="1066"/>
                            <mxPoint x="466" y="910"/>
                            <mxPoint x="1197" y="910"/>
                            <mxPoint x="1197" y="801"/>
                        </Array>
                    </mxGeometry>
                </mxCell>
                <mxCell id="NrSOS7HWTmHr_U7G-Utp-239" style="edgeStyle=orthogonalEdgeStyle;rounded=0;orthogonalLoop=1;jettySize=auto;html=1;entryX=0.5;entryY=1;entryDx=0;entryDy=0;endArrow=none;endFill=0;strokeColor=#FF0000;jumpStyle=arc;" parent="1" source="NrSOS7HWTmHr_U7G-Utp-73" target="NrSOS7HWTmHr_U7G-Utp-186" edge="1">
                    <mxGeometry relative="1" as="geometry">
                        <Array as="points">
                            <mxPoint x="479" y="1086"/>
                            <mxPoint x="479" y="927"/>
                            <mxPoint x="1286" y="927"/>
                            <mxPoint x="1286" y="800"/>
                        </Array>
                    </mxGeometry>
                </mxCell>
                <mxCell id="NrSOS7HWTmHr_U7G-Utp-241" style="edgeStyle=orthogonalEdgeStyle;rounded=0;orthogonalLoop=1;jettySize=auto;html=1;entryX=1;entryY=0.5;entryDx=0;entryDy=0;endArrow=none;endFill=0;exitX=0.5;exitY=1;exitDx=0;exitDy=0;jumpStyle=arc;" parent="1" source="NrSOS7HWTmHr_U7G-Utp-56" target="NrSOS7HWTmHr_U7G-Utp-133" edge="1">
                    <mxGeometry relative="1" as="geometry">
                        <Array as="points">
                            <mxPoint x="194" y="1146"/>
                            <mxPoint x="194" y="941"/>
                        </Array>
                    </mxGeometry>
                </mxCell>
                <mxCell id="NrSOS7HWTmHr_U7G-Utp-242" style="edgeStyle=orthogonalEdgeStyle;rounded=0;orthogonalLoop=1;jettySize=auto;html=1;entryX=1;entryY=0.5;entryDx=0;entryDy=0;strokeColor=#FF0000;endArrow=none;endFill=0;jumpStyle=arc;" parent="1" source="NrSOS7HWTmHr_U7G-Utp-58" target="NrSOS7HWTmHr_U7G-Utp-194" edge="1">
                    <mxGeometry relative="1" as="geometry">
                        <Array as="points">
                            <mxPoint x="166" y="1106"/>
                            <mxPoint x="166" y="993"/>
                        </Array>
                    </mxGeometry>
                </mxCell>
                <mxCell id="NrSOS7HWTmHr_U7G-Utp-243" style="edgeStyle=orthogonalEdgeStyle;rounded=0;orthogonalLoop=1;jettySize=auto;html=1;entryX=0.5;entryY=0;entryDx=0;entryDy=0;strokeColor=#007FFF;jumpStyle=arc;endArrow=none;endFill=0;" parent="1" source="NrSOS7HWTmHr_U7G-Utp-132" target="NrSOS7HWTmHr_U7G-Utp-64" edge="1">
                    <mxGeometry relative="1" as="geometry">
                        <Array as="points">
                            <mxPoint x="129" y="959"/>
                            <mxPoint x="129" y="798"/>
                            <mxPoint x="392" y="798"/>
                            <mxPoint x="392" y="906"/>
                        </Array>
                    </mxGeometry>
                </mxCell>
            </root>
        </mxGraphModel>
    </diagram>
</mxfile>